<svg width="324" height="324" viewBox="0 0 324 324" fill="none" xmlns="http://www.w3.org/2000/svg">
<path d="M265.194 175.783C262.369 160.879 253.238 149.993 241.354 141.238C232.872 134.985 225.984 126.807 220.074 118.098C211.818 105.922 204.969 90.6876 191.62 83.1578C172.634 72.4529 154.38 87.0134 138.99 97.2842C130.915 102.676 122.304 108.3 112.532 109.855C98.5997 112.085 84.4539 105.967 70.6385 109.648C67.9556 109.769 65.3177 110.382 62.856 111.456C62.856 111.456 45.36 117.288 40.176 147.096C34.992 176.904 39.528 221.616 64.152 247.536C88.776 273.456 108.216 276.696 121.176 277.344C121.532 277.344 121.882 277.344 122.232 277.344C130.831 278.64 141.024 277.992 152.688 274.752C190.194 264.332 188.108 240.369 221.448 235.159C254.787 229.949 270.922 205.993 265.194 175.783Z" fill="#5667FD"/>
<path opacity="0.7" d="M265.194 175.783C262.369 160.879 253.238 149.993 241.354 141.238C232.872 134.985 225.984 126.807 220.074 118.098C211.818 105.922 204.969 90.6876 191.62 83.1578C172.634 72.4529 154.38 87.0134 138.99 97.2842C130.915 102.676 122.304 108.3 112.532 109.855C98.5997 112.085 84.4539 105.967 70.6385 109.648C67.9556 109.769 65.3177 110.382 62.856 111.456C62.856 111.456 45.36 117.288 40.176 147.096C34.992 176.904 39.528 221.616 64.152 247.536C88.776 273.456 108.216 276.696 121.176 277.344C121.532 277.344 121.882 277.344 122.232 277.344C130.831 278.64 141.024 277.992 152.688 274.752C190.194 264.332 188.108 240.369 221.448 235.159C254.787 229.949 270.922 205.993 265.194 175.783Z" fill="white"/>
<path d="M143.934 59.3827C143.934 59.3827 146.902 57.0369 147.666 55.5336C148.314 54.2376 148.781 52.4361 148.113 51.0753C147.969 50.7472 147.758 50.4531 147.492 50.2123C147.227 49.9716 146.913 49.7896 146.572 49.6783C146.232 49.567 145.871 49.5288 145.515 49.5664C145.159 49.6039 144.814 49.7162 144.504 49.896C142.67 51.0365 142.476 54.9115 142.942 56.7777C142.981 56.9592 143.901 59.4086 143.934 59.3827Z" fill="#5667FD"/>
<path d="M116.478 78.9199C116.601 79.0365 118.72 80.5723 118.727 80.5334C118.733 80.4945 119.912 76.937 119.718 75.2652C119.55 73.8396 118.94 72.0641 117.632 71.2994C117.33 71.1069 116.991 70.9803 116.637 70.9278C116.284 70.8753 115.923 70.8981 115.578 70.9948C115.234 71.0914 114.914 71.2597 114.639 71.4887C114.364 71.7176 114.141 72.002 113.983 72.3233C113.083 74.2802 115.059 77.6239 116.478 78.9199Z" fill="#5667FD"/>
<path d="M178.705 62.9338C178.705 62.9338 167.832 74.1571 167.89 87.9401C167.949 101.723 178.906 112.856 178.906 112.856C178.906 112.856 189.78 101.632 189.722 87.8494C189.663 74.0664 178.705 62.9338 178.705 62.9338Z" fill="#5667FD"/>
<path d="M163.205 96.2021C163.346 96.0445 163.476 95.8778 163.594 95.7031C164.385 94.5043 165.059 92.7612 164.553 91.3291C164.446 90.9877 164.268 90.6727 164.031 90.4047C163.793 90.1367 163.502 89.9217 163.176 89.7737C162.851 89.6257 162.497 89.5481 162.139 89.5459C161.781 89.5437 161.427 89.617 161.099 89.761C159.622 90.4608 158.903 92.826 158.747 94.7635C158.157 94.6274 157.626 94.5238 157.166 94.446C156.972 94.0118 156.777 93.5647 156.576 93.15C156.375 92.7353 156.213 92.2298 156.025 91.7633C155.766 91.0764 155.533 90.3506 155.293 89.6314C156.155 89.2426 158.663 88.0762 159.596 87.0394C160.529 86.0026 161.488 84.3502 161.203 82.8598C161.149 82.5061 161.02 82.1679 160.827 81.8671C160.633 81.5663 160.378 81.3097 160.078 81.1141C159.779 80.9184 159.441 80.7881 159.088 80.7316C158.735 80.6751 158.373 80.6937 158.028 80.7862C155.961 81.4342 154.749 85.0889 154.704 87.0134C154.704 87.0782 154.704 87.4865 154.781 87.966C154.574 87.2532 154.36 86.5469 154.179 85.8211C153.647 83.754 153.168 81.635 152.682 79.5161C152.585 79.069 152.474 78.6348 152.371 78.2201C153.096 77.9026 155.818 76.6584 156.797 75.5762C157.775 74.4941 158.695 72.887 158.41 71.3966C158.355 71.0427 158.226 70.7044 158.032 70.4036C157.837 70.1028 157.581 69.8463 157.281 69.6507C156.981 69.4551 156.643 69.3249 156.29 69.2684C155.936 69.212 155.574 69.2306 155.228 69.323C153.168 69.971 151.956 73.6258 151.911 75.5503C151.911 75.6151 151.95 76.1011 152.001 76.6454C151.716 75.4985 151.425 74.358 151.101 73.2305C150.55 71.2991 149.871 69.407 149.066 67.567C149.325 67.4568 152.546 66.0636 153.634 64.8583C154.6 63.7956 155.526 62.1691 155.241 60.6787C155.187 60.3251 155.059 59.9868 154.865 59.686C154.671 59.3853 154.416 59.1287 154.117 58.933C153.817 58.7374 153.48 58.6071 153.126 58.5506C152.773 58.4941 152.412 58.5127 152.066 58.6051C150.006 59.2531 148.787 62.9078 148.748 64.8324C148.748 64.9685 148.904 66.7246 148.982 67.3531V67.2883C148.151 65.4982 147.16 63.787 146.02 62.1756C145.022 60.7291 143.94 59.3421 142.78 58.0219C141.711 56.7907 140.655 55.7215 139.715 54.7819C139.197 54.283 138.717 53.8294 138.27 53.4146H138.316C138.354 53.4146 137.305 51.0106 137.22 50.868C136.261 49.2026 133.417 46.5588 131.311 46.98C130.964 47.0665 130.638 47.225 130.356 47.4452C130.074 47.6655 129.842 47.9425 129.674 48.2584C129.506 48.5743 129.406 48.9219 129.381 49.2788C129.356 49.6357 129.406 49.9939 129.529 50.3302C130.002 51.7752 131.596 52.7472 132.957 53.2138C134.317 53.6803 137.382 53.4665 138.141 53.3952C138.601 53.8358 139.087 54.3154 139.612 54.8467C140.532 55.7993 141.556 56.8879 142.605 58.1386C142.878 58.469 143.163 58.8449 143.448 59.1948C142.845 58.6958 142.016 58.0284 141.925 57.9701C140.305 56.9398 136.56 55.903 134.907 57.2767C134.637 57.5118 134.42 57.8013 134.27 58.1262C134.119 58.4511 134.04 58.804 134.035 59.162C134.031 59.5199 134.102 59.8747 134.245 60.2031C134.387 60.5315 134.598 60.8261 134.862 61.0675C135.944 62.1367 137.817 62.2598 139.236 62.0525C140.655 61.8451 143.364 60.1798 143.94 59.8104C144.556 60.601 145.171 61.4304 145.761 62.3311C146.845 63.9496 147.784 65.6604 148.567 67.4438C148.612 67.5475 148.645 67.6577 148.69 67.7614C148.437 67.4633 146.921 65.9405 146.804 65.8174C145.308 64.6121 141.705 63.167 139.903 64.3529C139.61 64.5576 139.363 64.822 139.178 65.1286C138.994 65.4353 138.876 65.7774 138.832 66.1326C138.789 66.4878 138.821 66.8482 138.926 67.1903C139.031 67.5323 139.208 67.8484 139.443 68.1178C140.409 69.2971 142.249 69.6276 143.681 69.5758C145.34 69.5174 148.593 67.8715 148.716 67.8132C149.45 69.611 150.065 71.4553 150.556 73.3342C150.926 74.7209 151.25 76.1465 151.554 77.5721C151.217 77.1962 149.811 75.7771 149.694 75.6864C148.198 74.4811 144.595 73.0361 142.793 74.2219C142.5 74.4267 142.253 74.691 142.068 74.9977C141.884 75.3043 141.766 75.6464 141.723 76.0016C141.679 76.3569 141.711 76.7172 141.816 77.0593C141.922 77.4014 142.098 77.7174 142.333 77.9868C143.299 79.1662 145.139 79.4966 146.571 79.4448C148.191 79.3865 151.314 77.8248 151.58 77.6952C151.723 78.3432 151.859 78.9912 151.995 79.6392C152.436 81.7646 152.87 83.903 153.356 85.9961C153.524 86.7218 153.719 87.4282 153.913 88.141C153.382 87.5902 152.403 86.6052 152.312 86.5274C150.816 85.3286 147.206 83.8836 145.411 85.063C145.118 85.2677 144.871 85.532 144.686 85.8387C144.502 86.1453 144.384 86.4874 144.34 86.8427C144.297 87.1979 144.329 87.5583 144.434 87.9003C144.539 88.2424 144.716 88.5584 144.951 88.8278C145.91 90.0072 147.757 90.3442 149.189 90.2858C150.621 90.2275 153.291 88.9898 154.036 88.614C154.36 89.7934 154.684 90.9598 155.112 92.0873C155.293 92.5733 155.449 93.0787 155.65 93.5323L155.954 94.2516L155.539 94.2127C155.539 94.2127 155.539 94.8607 155.572 95.9818C153.991 94.8542 151.684 93.8822 150.226 94.5691C149.905 94.7272 149.622 94.951 149.393 95.226C149.165 95.5009 148.997 95.8208 148.9 96.1649C148.804 96.5091 148.781 96.8696 148.833 97.2232C148.885 97.5769 149.011 97.9156 149.202 98.2174C149.299 98.3799 149.409 98.5338 149.532 98.6774C149.82 100.339 150.524 101.899 151.58 103.213C151.658 103.311 152.734 104.302 153.297 104.795C152.753 104.503 152.215 104.211 151.658 103.9C150.848 103.447 150.012 102.948 149.196 102.468L147.938 101.671C147.511 101.406 147.128 101.107 146.714 100.822C146.118 100.388 145.521 99.9151 144.932 99.4421C145.437 98.6515 146.876 96.2928 147.09 94.9061C147.303 93.5194 147.18 91.6142 146.124 90.5256C145.885 90.2593 145.592 90.0463 145.265 89.9005C144.938 89.7547 144.583 89.6794 144.225 89.6794C143.867 89.6794 143.513 89.7547 143.186 89.9005C142.859 90.0463 142.566 90.2593 142.327 90.5256C140.946 92.178 141.97 95.9234 142.975 97.5499C142.975 97.6018 143.26 97.9258 143.564 98.3016C143.001 97.8221 142.43 97.349 141.873 96.8436C140.292 95.418 138.724 93.9082 137.149 92.4113L136.158 91.4782C136.585 90.8302 138.173 88.2382 138.393 86.832C138.614 85.4258 138.491 83.5402 137.428 82.4515C137.188 82.1863 136.896 81.9742 136.57 81.8291C136.243 81.6839 135.89 81.6089 135.532 81.6089C135.175 81.6089 134.822 81.6839 134.495 81.8291C134.169 81.9742 133.876 82.1863 133.637 82.4515C132.257 84.1039 133.274 87.8494 134.285 89.4758C134.324 89.5342 134.628 89.9165 134.965 90.3442C134.104 89.5406 133.222 88.7501 132.335 87.9919C130.809 86.6853 129.199 85.4817 127.513 84.389C127.669 84.1558 129.587 81.2138 129.827 79.6133C130.047 78.1877 129.924 76.3214 128.868 75.2328C128.625 74.9718 128.331 74.7636 128.005 74.6212C127.678 74.4788 127.325 74.4053 126.969 74.4053C126.613 74.4053 126.26 74.4788 125.934 74.6212C125.607 74.7636 125.313 74.9718 125.07 75.2328C123.69 76.8852 124.714 80.6306 125.718 82.2571C125.79 82.3738 126.891 83.7475 127.306 84.2011L127.248 84.1622C125.566 83.1311 123.797 82.2507 121.96 81.5314C120.322 80.8812 118.647 80.3273 116.945 79.8725C115.37 79.4318 113.899 79.1273 112.596 78.8681C111.897 78.732 111.249 78.6218 110.652 78.5246H110.691C110.691 78.5246 108.527 77.0731 108.378 77.0018C106.654 76.1465 102.825 75.505 101.321 77.0472C101.079 77.3105 100.895 77.6218 100.781 77.9609C100.667 78.3 100.625 78.6593 100.659 79.0155C100.692 79.3717 100.8 79.7168 100.976 80.0286C101.151 80.3403 101.39 80.6117 101.678 80.825C102.87 81.7711 104.736 81.6998 106.129 81.3434C107.523 80.987 109.959 79.1014 110.555 78.6348C111.203 78.745 111.851 78.8746 112.584 79.0301C113.88 79.3152 115.331 79.6781 116.893 80.1252C117.307 80.2483 117.748 80.4038 118.189 80.5399C117.411 80.4557 116.348 80.3585 116.245 80.3585C114.301 80.3585 110.627 81.5897 110.004 83.6503C109.91 83.9954 109.889 84.3566 109.943 84.7103C109.998 85.064 110.126 85.4022 110.32 85.7031C110.514 86.0039 110.769 86.2604 111.068 86.4561C111.368 86.6517 111.705 86.782 112.059 86.8385C113.549 87.1301 115.182 86.1905 116.251 85.2444C117.32 84.2983 118.662 81.4082 118.94 80.7797C119.886 81.1037 120.884 81.4277 121.843 81.8813C123.648 82.6299 125.382 83.5363 127.027 84.5899C127.118 84.6547 127.209 84.7325 127.306 84.7908C126.93 84.6871 124.824 84.2465 124.675 84.2335C122.731 84.0521 118.953 84.8362 118.111 86.8255C117.98 87.1583 117.92 87.5148 117.936 87.8721C117.951 88.2294 118.042 88.5795 118.201 88.8996C118.361 89.2197 118.585 89.5028 118.861 89.7304C119.137 89.9581 119.458 90.1252 119.802 90.221C121.254 90.6746 122.977 89.9294 124.144 89.1C125.492 88.1345 127.3 84.9658 127.384 84.8491C128.985 85.9458 130.513 87.145 131.959 88.439C133.041 89.3916 134.091 90.383 135.134 91.4263C134.641 91.2967 132.684 90.8885 132.542 90.8755C130.598 90.7006 126.827 91.4846 125.978 93.4675C125.847 93.8003 125.787 94.1568 125.802 94.5141C125.818 94.8714 125.908 95.2215 126.068 95.5416C126.227 95.8617 126.452 96.1448 126.728 96.3724C127.004 96.6001 127.324 96.7672 127.669 96.863C129.12 97.3166 130.844 96.5779 132.011 95.742C133.307 94.8024 135.076 91.7698 135.251 91.517L136.676 92.9102C138.218 94.446 139.754 95.9882 141.316 97.4462C141.86 97.9582 142.411 98.4442 142.962 98.9302C142.223 98.7617 140.862 98.4766 140.739 98.4701C138.828 98.2886 135.024 99.0727 134.175 101.062C134.044 101.395 133.984 101.752 134 102.11C134.016 102.468 134.107 102.818 134.267 103.138C134.427 103.458 134.653 103.741 134.93 103.969C135.206 104.196 135.528 104.362 135.873 104.458C137.324 104.905 139.041 104.166 140.208 103.337C141.374 102.507 142.91 99.9799 143.331 99.2671C144.251 100.071 145.184 100.848 146.143 101.568C146.565 101.872 146.973 102.216 147.388 102.475L148.625 103.298C149.487 103.836 150.291 104.334 151.107 104.814L152.312 105.507C151.587 105.222 150.427 104.795 150.317 104.769C148.45 104.302 144.575 104.496 143.435 106.33C143.255 106.639 143.143 106.983 143.105 107.338C143.066 107.693 143.103 108.053 143.212 108.393C143.322 108.733 143.501 109.047 143.739 109.313C143.977 109.579 144.269 109.793 144.595 109.94C145.962 110.588 147.776 110.134 149.053 109.486C150.466 108.773 152.591 106.142 152.85 105.818C153.842 106.382 154.794 106.92 155.721 107.406C158.164 108.702 160.257 109.758 161.942 110.529C167.314 115.176 174.902 115.713 174.902 115.713C174.902 115.713 175.303 106.641 169.97 100.706C168.076 98.7233 165.765 97.1852 163.205 96.2021ZM153.615 105.028C153.783 104.652 155.066 101.788 155.157 100.155C155.455 100.103 155.76 100.038 156.051 99.9734C156.595 102.833 157.73 105.548 159.382 107.944C158.404 107.477 157.347 106.965 156.226 106.395C155.39 105.967 154.516 105.507 153.615 105.028Z" fill="#5667FD"/>
<path d="M202.824 94.4655C202.824 94.4655 193.752 94.7441 188.225 100.505C182.697 106.266 182.736 115.344 182.736 115.344C182.736 115.344 191.808 115.065 197.336 109.305C202.863 103.544 202.824 94.4655 202.824 94.4655Z" fill="#5667FD"/>
<g opacity="0.5">
<path opacity="0.5" d="M143.934 59.3827C143.934 59.3827 146.902 57.0369 147.666 55.5336C148.314 54.2376 148.781 52.4361 148.113 51.0753C147.969 50.7472 147.758 50.4531 147.492 50.2123C147.227 49.9716 146.913 49.7896 146.572 49.6783C146.232 49.567 145.871 49.5288 145.515 49.5664C145.159 49.6039 144.814 49.7162 144.504 49.896C142.67 51.0365 142.476 54.9115 142.942 56.7777C142.981 56.9592 143.901 59.4086 143.934 59.3827Z" fill="white"/>
<path opacity="0.5" d="M116.478 78.9199C116.601 79.0365 118.72 80.5723 118.727 80.5334C118.733 80.4945 119.912 76.937 119.718 75.2652C119.55 73.8396 118.94 72.0641 117.632 71.2994C117.33 71.1069 116.991 70.9803 116.637 70.9278C116.284 70.8753 115.923 70.8981 115.578 70.9948C115.234 71.0914 114.914 71.2597 114.639 71.4887C114.364 71.7176 114.141 72.002 113.983 72.3233C113.083 74.2802 115.059 77.6239 116.478 78.9199Z" fill="white"/>
<path opacity="0.5" d="M178.705 62.9338C178.705 62.9338 167.832 74.1571 167.89 87.9401C167.949 101.723 178.906 112.856 178.906 112.856C178.906 112.856 189.78 101.632 189.722 87.8494C189.663 74.0664 178.705 62.9338 178.705 62.9338Z" fill="white"/>
<path opacity="0.5" d="M163.205 96.2021C163.346 96.0445 163.476 95.8778 163.594 95.7031C164.385 94.5043 165.059 92.7612 164.553 91.3291C164.446 90.9877 164.268 90.6727 164.031 90.4047C163.793 90.1367 163.502 89.9217 163.176 89.7737C162.851 89.6257 162.497 89.5481 162.139 89.5459C161.781 89.5437 161.427 89.617 161.099 89.761C159.622 90.4608 158.903 92.826 158.747 94.7635C158.157 94.6274 157.626 94.5238 157.166 94.446C156.972 94.0118 156.777 93.5647 156.576 93.15C156.375 92.7353 156.213 92.2298 156.025 91.7633C155.766 91.0764 155.533 90.3506 155.293 89.6314C156.155 89.2426 158.663 88.0762 159.596 87.0394C160.529 86.0026 161.488 84.3502 161.203 82.8598C161.149 82.5061 161.02 82.1679 160.827 81.8671C160.633 81.5663 160.378 81.3097 160.078 81.1141C159.779 80.9184 159.441 80.7881 159.088 80.7316C158.735 80.6751 158.373 80.6937 158.028 80.7862C155.961 81.4342 154.749 85.0889 154.704 87.0134C154.704 87.0782 154.704 87.4865 154.781 87.966C154.574 87.2532 154.36 86.5469 154.179 85.8211C153.647 83.754 153.168 81.635 152.682 79.5161C152.585 79.069 152.474 78.6348 152.371 78.2201C153.096 77.9026 155.818 76.6584 156.797 75.5762C157.775 74.4941 158.695 72.887 158.41 71.3966C158.355 71.0427 158.226 70.7044 158.032 70.4036C157.837 70.1028 157.581 69.8463 157.281 69.6507C156.981 69.4551 156.643 69.3249 156.29 69.2684C155.936 69.212 155.574 69.2306 155.228 69.323C153.168 69.971 151.956 73.6258 151.911 75.5503C151.911 75.6151 151.95 76.1011 152.001 76.6454C151.716 75.4985 151.425 74.358 151.101 73.2305C150.55 71.2991 149.871 69.407 149.066 67.567C149.325 67.4568 152.546 66.0636 153.634 64.8583C154.6 63.7956 155.526 62.1691 155.241 60.6787C155.187 60.3251 155.059 59.9868 154.865 59.686C154.671 59.3853 154.416 59.1287 154.117 58.933C153.817 58.7374 153.48 58.6071 153.126 58.5506C152.773 58.4941 152.412 58.5127 152.066 58.6051C150.006 59.2531 148.787 62.9078 148.748 64.8324C148.748 64.9685 148.904 66.7246 148.982 67.3531V67.2883C148.151 65.4982 147.16 63.787 146.02 62.1756C145.022 60.7291 143.94 59.3421 142.78 58.0219C141.711 56.7907 140.655 55.7215 139.715 54.7819C139.197 54.283 138.717 53.8294 138.27 53.4146H138.316C138.354 53.4146 137.305 51.0106 137.22 50.868C136.261 49.2026 133.417 46.5588 131.311 46.98C130.964 47.0665 130.638 47.225 130.356 47.4452C130.074 47.6655 129.842 47.9425 129.674 48.2584C129.506 48.5743 129.406 48.9219 129.381 49.2788C129.356 49.6357 129.406 49.9939 129.529 50.3302C130.002 51.7752 131.596 52.7472 132.957 53.2138C134.317 53.6803 137.382 53.4665 138.141 53.3952C138.601 53.8358 139.087 54.3154 139.612 54.8467C140.532 55.7993 141.556 56.8879 142.605 58.1386C142.878 58.469 143.163 58.8449 143.448 59.1948C142.845 58.6958 142.016 58.0284 141.925 57.9701C140.305 56.9398 136.56 55.903 134.907 57.2767C134.637 57.5118 134.42 57.8013 134.27 58.1262C134.119 58.4511 134.04 58.804 134.035 59.162C134.031 59.5199 134.102 59.8747 134.245 60.2031C134.387 60.5315 134.598 60.8261 134.862 61.0675C135.944 62.1367 137.817 62.2598 139.236 62.0525C140.655 61.8451 143.364 60.1798 143.94 59.8104C144.556 60.601 145.171 61.4304 145.761 62.3311C146.845 63.9496 147.784 65.6604 148.567 67.4438C148.612 67.5475 148.645 67.6577 148.69 67.7614C148.437 67.4633 146.921 65.9405 146.804 65.8174C145.308 64.6121 141.705 63.167 139.903 64.3529C139.61 64.5576 139.363 64.822 139.178 65.1286C138.994 65.4353 138.876 65.7774 138.832 66.1326C138.789 66.4878 138.821 66.8482 138.926 67.1903C139.031 67.5323 139.208 67.8484 139.443 68.1178C140.409 69.2971 142.249 69.6276 143.681 69.5758C145.34 69.5174 148.593 67.8715 148.716 67.8132C149.45 69.611 150.065 71.4553 150.556 73.3342C150.926 74.7209 151.25 76.1465 151.554 77.5721C151.217 77.1962 149.811 75.7771 149.694 75.6864C148.198 74.4811 144.595 73.0361 142.793 74.2219C142.5 74.4267 142.253 74.691 142.068 74.9977C141.884 75.3043 141.766 75.6464 141.723 76.0016C141.679 76.3569 141.711 76.7172 141.816 77.0593C141.922 77.4014 142.098 77.7174 142.333 77.9868C143.299 79.1662 145.139 79.4966 146.571 79.4448C148.191 79.3865 151.314 77.8248 151.58 77.6952C151.723 78.3432 151.859 78.9912 151.995 79.6392C152.436 81.7646 152.87 83.903 153.356 85.9961C153.524 86.7218 153.719 87.4282 153.913 88.141C153.382 87.5902 152.403 86.6052 152.312 86.5274C150.816 85.3286 147.206 83.8836 145.411 85.063C145.118 85.2677 144.871 85.532 144.686 85.8387C144.502 86.1453 144.384 86.4874 144.34 86.8427C144.297 87.1979 144.329 87.5583 144.434 87.9003C144.539 88.2424 144.716 88.5584 144.951 88.8278C145.91 90.0072 147.757 90.3442 149.189 90.2858C150.621 90.2275 153.291 88.9898 154.036 88.614C154.36 89.7934 154.684 90.9598 155.112 92.0873C155.293 92.5733 155.449 93.0787 155.65 93.5323L155.954 94.2516L155.539 94.2127C155.539 94.2127 155.539 94.8607 155.572 95.9818C153.991 94.8542 151.684 93.8822 150.226 94.5691C149.905 94.7272 149.622 94.951 149.393 95.226C149.165 95.5009 148.997 95.8208 148.9 96.1649C148.804 96.5091 148.781 96.8696 148.833 97.2232C148.885 97.5769 149.011 97.9156 149.202 98.2174C149.299 98.3799 149.409 98.5338 149.532 98.6774C149.82 100.339 150.524 101.899 151.58 103.213C151.658 103.311 152.734 104.302 153.297 104.795C152.753 104.503 152.215 104.211 151.658 103.9C150.848 103.447 150.012 102.948 149.196 102.468L147.938 101.671C147.511 101.406 147.128 101.107 146.714 100.822C146.118 100.388 145.521 99.9151 144.932 99.4421C145.437 98.6515 146.876 96.2928 147.09 94.9061C147.303 93.5194 147.18 91.6142 146.124 90.5256C145.885 90.2593 145.592 90.0463 145.265 89.9005C144.938 89.7547 144.583 89.6794 144.225 89.6794C143.867 89.6794 143.513 89.7547 143.186 89.9005C142.859 90.0463 142.566 90.2593 142.327 90.5256C140.946 92.178 141.97 95.9234 142.975 97.5499C142.975 97.6018 143.26 97.9258 143.564 98.3016C143.001 97.8221 142.43 97.349 141.873 96.8436C140.292 95.418 138.724 93.9082 137.149 92.4113L136.158 91.4782C136.585 90.8302 138.173 88.2382 138.393 86.832C138.614 85.4258 138.491 83.5402 137.428 82.4515C137.188 82.1863 136.896 81.9742 136.57 81.8291C136.243 81.6839 135.89 81.6089 135.532 81.6089C135.175 81.6089 134.822 81.6839 134.495 81.8291C134.169 81.9742 133.876 82.1863 133.637 82.4515C132.257 84.1039 133.274 87.8494 134.285 89.4758C134.324 89.5342 134.628 89.9165 134.965 90.3442C134.104 89.5406 133.222 88.7501 132.335 87.9919C130.809 86.6853 129.199 85.4817 127.513 84.389C127.669 84.1558 129.587 81.2138 129.827 79.6133C130.047 78.1877 129.924 76.3214 128.868 75.2328C128.625 74.9718 128.331 74.7636 128.005 74.6212C127.678 74.4788 127.325 74.4053 126.969 74.4053C126.613 74.4053 126.26 74.4788 125.934 74.6212C125.607 74.7636 125.313 74.9718 125.07 75.2328C123.69 76.8852 124.714 80.6306 125.718 82.2571C125.79 82.3738 126.891 83.7475 127.306 84.2011L127.248 84.1622C125.566 83.1311 123.797 82.2507 121.96 81.5314C120.322 80.8812 118.647 80.3273 116.945 79.8725C115.37 79.4318 113.899 79.1273 112.596 78.8681C111.897 78.732 111.249 78.6218 110.652 78.5246H110.691C110.691 78.5246 108.527 77.0731 108.378 77.0018C106.654 76.1465 102.825 75.505 101.321 77.0472C101.079 77.3105 100.895 77.6218 100.781 77.9609C100.667 78.3 100.625 78.6593 100.659 79.0155C100.692 79.3717 100.8 79.7168 100.976 80.0286C101.151 80.3403 101.39 80.6117 101.678 80.825C102.87 81.7711 104.736 81.6998 106.129 81.3434C107.523 80.987 109.959 79.1014 110.555 78.6348C111.203 78.745 111.851 78.8746 112.584 79.0301C113.88 79.3152 115.331 79.6781 116.893 80.1252C117.307 80.2483 117.748 80.4038 118.189 80.5399C117.411 80.4557 116.348 80.3585 116.245 80.3585C114.301 80.3585 110.627 81.5897 110.004 83.6503C109.91 83.9954 109.889 84.3566 109.943 84.7103C109.998 85.064 110.126 85.4022 110.32 85.7031C110.514 86.0039 110.769 86.2604 111.068 86.4561C111.368 86.6517 111.705 86.782 112.059 86.8385C113.549 87.1301 115.182 86.1905 116.251 85.2444C117.32 84.2983 118.662 81.4082 118.94 80.7797C119.886 81.1037 120.884 81.4277 121.843 81.8813C123.648 82.6299 125.382 83.5363 127.027 84.5899C127.118 84.6547 127.209 84.7325 127.306 84.7908C126.93 84.6871 124.824 84.2465 124.675 84.2335C122.731 84.0521 118.953 84.8362 118.111 86.8255C117.98 87.1583 117.92 87.5148 117.936 87.8721C117.951 88.2294 118.042 88.5795 118.201 88.8996C118.361 89.2197 118.585 89.5028 118.861 89.7304C119.137 89.9581 119.458 90.1252 119.802 90.221C121.254 90.6746 122.977 89.9294 124.144 89.1C125.492 88.1345 127.3 84.9658 127.384 84.8491C128.985 85.9458 130.513 87.145 131.959 88.439C133.041 89.3916 134.091 90.383 135.134 91.4263C134.641 91.2967 132.684 90.8885 132.542 90.8755C130.598 90.7006 126.827 91.4846 125.978 93.4675C125.847 93.8003 125.787 94.1568 125.802 94.5141C125.818 94.8714 125.908 95.2215 126.068 95.5416C126.227 95.8617 126.452 96.1448 126.728 96.3724C127.004 96.6001 127.324 96.7672 127.669 96.863C129.12 97.3166 130.844 96.5779 132.011 95.742C133.307 94.8024 135.076 91.7698 135.251 91.517L136.676 92.9102C138.218 94.446 139.754 95.9882 141.316 97.4462C141.86 97.9582 142.411 98.4442 142.962 98.9302C142.223 98.7617 140.862 98.4766 140.739 98.4701C138.828 98.2886 135.024 99.0727 134.175 101.062C134.044 101.395 133.984 101.752 134 102.11C134.016 102.468 134.107 102.818 134.267 103.138C134.427 103.458 134.653 103.741 134.93 103.969C135.206 104.196 135.528 104.362 135.873 104.458C137.324 104.905 139.041 104.166 140.208 103.337C141.374 102.507 142.91 99.9799 143.331 99.2671C144.251 100.071 145.184 100.848 146.143 101.568C146.565 101.872 146.973 102.216 147.388 102.475L148.625 103.298C149.487 103.836 150.291 104.334 151.107 104.814L152.312 105.507C151.587 105.222 150.427 104.795 150.317 104.769C148.45 104.302 144.575 104.496 143.435 106.33C143.255 106.639 143.143 106.983 143.105 107.338C143.066 107.693 143.103 108.053 143.212 108.393C143.322 108.733 143.501 109.047 143.739 109.313C143.977 109.579 144.269 109.793 144.595 109.94C145.962 110.588 147.776 110.134 149.053 109.486C150.466 108.773 152.591 106.142 152.85 105.818C153.842 106.382 154.794 106.92 155.721 107.406C158.164 108.702 160.257 109.758 161.942 110.529C167.314 115.176 174.902 115.713 174.902 115.713C174.902 115.713 175.303 106.641 169.97 100.706C168.076 98.7233 165.765 97.1852 163.205 96.2021ZM153.615 105.028C153.783 104.652 155.066 101.788 155.157 100.155C155.455 100.103 155.76 100.038 156.051 99.9734C156.595 102.833 157.73 105.548 159.382 107.944C158.404 107.477 157.347 106.965 156.226 106.395C155.39 105.967 154.516 105.507 153.615 105.028Z" fill="white"/>
<path opacity="0.5" d="M202.824 94.4655C202.824 94.4655 193.752 94.7441 188.225 100.505C182.697 106.266 182.736 115.344 182.736 115.344C182.736 115.344 191.808 115.065 197.336 109.305C202.863 103.544 202.824 94.4655 202.824 94.4655Z" fill="white"/>
</g>
<path d="M179.153 100.304L188.043 92.3076L187.667 91.8799L179.146 99.5393L179.101 89.0611L179.146 89.0935L186.669 78.0905L186.203 77.7665L179.094 88.1539L178.991 62.9338L178.42 62.9403L178.492 80.0539L172.828 75.1551L172.459 75.5827L178.498 80.8121L178.55 93.0463L169.964 85.4583L169.588 85.8795L178.55 93.811L178.602 104.957L172.148 99.8957L171.798 100.343L178.602 105.682L178.634 112.856H179.204L179.146 100.297L179.153 100.304Z" fill="white"/>
<path d="M170.955 103.388L170.392 103.324L169.672 109.655L165.856 105.391H165.862L164.89 97.7249L164.326 97.7962L165.195 104.652L155.701 94.0378L155.274 94.4201L161.715 101.619L157.639 101.671L157.645 102.241L162.22 102.183L166.737 107.231L160.36 107.238V107.808L167.249 107.801L171.351 112.389L166.853 112.661L166.892 113.232L171.837 112.933L174.571 115.992L174.999 115.61L170.184 110.225L170.955 103.388Z" fill="white"/>
<path d="M192.45 105.643L200.018 104.108L199.908 103.55L193.136 104.924L203.012 94.6663L202.597 94.271L195.897 101.231L195.547 97.1676L194.977 97.2194L195.372 101.775L190.674 106.654L190.195 100.297L189.624 100.343L190.143 107.205L185.872 111.644L185.27 107.179L184.706 107.257L185.367 112.169L182.522 115.124L182.937 115.519L187.946 110.316L194.821 110.581L194.847 110.011L188.477 109.765L192.45 105.637V105.643Z" fill="white"/>
<path d="M105.352 193.551C105.864 196.098 111.981 197.122 111.981 197.122L116.517 194.53C118.415 210.47 120.1 223.482 120.664 224.616C122.193 227.675 133.41 223.599 134.428 218.499C134.842 216.438 132.833 202.539 130.3 186.715L146.15 177.721C146.15 177.721 146.843 175.446 141.912 176.327C140.188 176.638 135.16 178.511 129.367 180.935C125.803 159.097 121.681 135.924 121.681 135.924C121.681 135.924 175.712 194.543 178.265 194.543C180.818 194.543 184.382 194.037 182.853 189.449C181.323 184.861 121.681 127.773 121.681 127.773C121.681 127.773 111.488 127.261 109.454 131.849C109.454 131.849 112.635 161.346 115.642 187.084C109.674 189.994 105.157 192.579 105.352 193.551Z" fill="#263238"/>
<path d="M225.867 178.524C225.8 175.886 225.538 173.257 225.083 170.657C224.181 165.457 222.524 160.416 220.164 155.695C219.012 153.355 217.693 151.101 216.218 148.949C214.775 146.806 213.195 144.759 211.488 142.819C209.81 140.885 208.016 139.054 206.116 137.337C202.363 133.954 198.302 130.93 193.985 128.304C176.839 117.891 157.049 113.115 137.454 113.4C132.553 113.536 127.672 114.06 122.854 114.968C118.031 115.855 113.316 117.249 108.786 119.128C104.284 121.017 100.033 123.457 96.1307 126.392C92.2726 129.281 88.7513 132.593 85.6331 136.268C85.5776 136.328 85.5467 136.407 85.5467 136.488C85.5467 136.57 85.5776 136.649 85.6331 136.709C85.6633 136.739 85.6991 136.763 85.7386 136.779C85.7781 136.796 85.8204 136.804 85.8632 136.804C85.906 136.804 85.9483 136.796 85.9878 136.779C86.0273 136.763 86.0631 136.739 86.0932 136.709C89.3592 133.287 93.0002 130.244 96.9472 127.637C100.862 124.984 105.089 122.823 109.531 121.202C118.428 117.962 127.961 116.737 137.395 116.828C146.871 116.97 156.286 118.378 165.389 121.014C174.503 123.602 183.196 127.491 191.199 132.561C199.124 137.674 206.271 144.141 211.455 152.001C212.759 153.961 213.92 156.012 214.929 158.138C216.975 162.374 218.392 166.886 219.134 171.532C219.506 173.853 219.708 176.199 219.737 178.55C219.761 180.899 219.635 183.247 219.361 185.581C219.186 186.741 219.024 187.901 218.797 189.054L218.402 190.765L218.207 191.62L217.955 192.462C216.638 196.973 214.652 201.261 212.064 205.183C206.88 213.024 199.513 219.303 191.361 223.975C183.129 228.624 174.191 231.894 164.903 233.656C155.613 235.457 146.124 236.002 136.689 235.276C135.503 235.224 134.33 235.062 133.157 234.958C132.568 234.894 131.978 234.842 131.395 234.77L129.645 234.505C128.479 234.31 127.306 234.181 126.153 233.934L122.718 233.28C122.139 233.164 121.566 233.019 121.001 232.846L119.297 232.373C118.156 232.055 117.016 231.757 115.908 231.349L112.558 230.202L109.272 228.874C108.728 228.647 108.177 228.433 107.639 228.193L106.039 227.448C104.976 226.93 103.894 226.457 102.851 225.906C100.783 224.759 98.6774 223.683 96.7075 222.374L95.2106 221.435L94.4589 220.962L93.7396 220.45L90.856 218.376C89.8905 217.689 89.0027 216.905 88.0761 216.173L86.7023 215.058C86.2358 214.695 85.8211 214.268 85.4063 213.879L82.8143 211.481L80.3519 208.909C79.9502 208.475 79.529 208.066 79.1467 207.613L78.0127 206.252L76.8787 204.891C76.5093 204.431 76.1075 203.997 75.7835 203.504L73.7229 200.627L73.2045 199.908L72.7444 199.15L71.7983 197.64C70.5776 195.622 69.4594 193.544 68.4482 191.413C66.4699 187.13 65.0939 182.594 64.3593 177.934C63.6734 173.266 63.6974 168.521 64.4306 163.86C65.1702 159.19 66.5368 154.641 68.4935 150.336C70.466 146.039 72.8972 141.967 75.7447 138.192C81.4977 130.652 88.4635 124.12 96.3575 118.863C96.4274 118.817 96.4767 118.747 96.4949 118.665C96.5131 118.584 96.4987 118.499 96.4547 118.428C96.4104 118.356 96.3394 118.304 96.257 118.283C96.1745 118.263 96.0873 118.275 96.0141 118.318C91.8813 120.773 87.9448 123.544 84.2399 126.606C80.5188 129.717 77.0896 133.162 73.9951 136.896C70.8452 140.679 68.1384 144.81 65.9275 149.208C63.6747 153.683 62.0377 158.441 61.061 163.354C60.1084 168.354 59.9248 173.469 60.5167 178.524C61.1573 183.592 62.4963 188.546 64.4954 193.247C66.5151 197.883 69.0241 202.291 71.9798 206.394C72.3232 206.926 72.7379 207.399 73.1203 207.898L74.2996 209.382L75.4725 210.859C75.8743 211.345 76.3149 211.799 76.7296 212.265L79.2827 215.052L81.9979 217.644C82.4579 218.071 82.8921 218.532 83.3716 218.94L84.8102 220.158C85.7757 220.955 86.7023 221.81 87.7067 222.562L90.7199 224.856L91.4781 225.42L92.2557 225.938L93.8303 226.975C95.891 228.42 98.1201 229.567 100.31 230.863C101.412 231.459 102.552 231.984 103.673 232.554L105.365 233.384C105.935 233.649 106.518 233.883 107.095 234.129L110.568 235.593L114.126 236.889C115.305 237.343 116.517 237.68 117.729 238.036L119.543 238.568C120.146 238.749 120.755 238.924 121.377 239.054L125.07 239.903C126.308 240.188 127.572 240.35 128.822 240.551L130.702 240.862C131.35 240.952 131.939 241.011 132.555 241.088C133.793 241.218 135.03 241.406 136.274 241.484C141.248 241.941 146.249 242.032 151.237 241.756C156.239 241.501 161.219 240.905 166.141 239.974C176.128 238.137 185.745 234.672 194.607 229.716C203.453 224.603 211.533 217.65 217.365 208.786C220.278 204.316 222.504 199.434 223.968 194.303L224.247 193.344L224.474 192.365L224.908 190.421C225.161 189.125 225.342 187.777 225.556 186.462C225.848 183.827 225.952 181.174 225.867 178.524Z" fill="#263238"/>
<path d="M136.67 135.924C136.852 136.311 137.14 136.637 137.5 136.866C137.86 137.096 138.277 137.219 138.704 137.22C139.051 137.223 139.393 137.143 139.702 136.987L148.774 132.535L154.716 137.59C154.941 137.796 155.205 137.955 155.493 138.057C155.78 138.158 156.086 138.201 156.39 138.182C156.695 138.163 156.992 138.083 157.265 137.947C157.538 137.81 157.78 137.62 157.978 137.387C158.175 137.155 158.324 136.885 158.415 136.594C158.505 136.302 158.537 135.996 158.506 135.692C158.476 135.389 158.384 135.095 158.238 134.827C158.091 134.56 157.892 134.325 157.652 134.136L153.206 130.352L158.216 127.883C158.486 127.748 158.727 127.562 158.925 127.334C159.123 127.107 159.274 126.842 159.37 126.556C159.466 126.27 159.505 125.968 159.484 125.667C159.463 125.366 159.384 125.072 159.249 124.802C159.115 124.531 158.928 124.29 158.701 124.092C158.473 123.894 158.209 123.743 157.923 123.647C157.636 123.551 157.334 123.512 157.033 123.533C156.732 123.554 156.438 123.634 156.168 123.768L149.396 127.105L144.64 123.055C144.182 122.665 143.588 122.473 142.988 122.521C142.388 122.569 141.832 122.853 141.442 123.311C141.052 123.769 140.86 124.363 140.908 124.963C140.956 125.563 141.24 126.119 141.698 126.509L144.938 129.289L137.655 132.872C137.119 133.147 136.715 133.622 136.53 134.194C136.345 134.767 136.396 135.389 136.67 135.924Z" fill="#263238"/>
<path opacity="0.3" d="M277.992 271.512L235.36 252.888C230.176 248.476 224.039 243.382 223.048 243.13C221.247 242.676 222.147 240.427 225.303 235.017C228.459 229.606 206.232 219.244 200.549 219.795C196.013 220.242 190.609 219.329 188.659 218.953C190.285 214.125 191.963 209.336 191.963 209.336L169.873 199.668L152.28 172.828L146.785 174.578C146.785 174.578 154.483 192.151 163.51 212.272C160.179 211.209 153.407 209.764 152.734 215.181C151.833 222.387 157.237 227.798 162.641 227.798C165.622 227.798 168.473 227.662 170.417 227.539C180.274 249.227 189.857 269.562 191.49 270.598C195.1 272.853 207.69 276.003 208.163 272.853C208.637 269.704 195.547 246.72 195.547 246.72C195.547 246.72 264.935 274.201 272.16 274.201C279.385 274.201 277.992 271.512 277.992 271.512ZM212.22 232.749C212.22 232.749 210.211 238.522 210.503 242.015L198.67 236.831L212.22 232.749ZM180.228 208.87L178.647 213.095L175.031 207.574L180.228 208.87Z" fill="black"/>
<path d="M251.035 131.9C251.035 131.9 252.441 128.907 251.56 126.613C250.679 124.319 234.466 120.619 234.466 120.619C234.466 120.619 230.759 120.619 230.934 122.731C231.109 124.844 244.51 132.957 245.566 133.663C246.622 134.369 250.679 135.957 251.035 131.9Z" fill="white" stroke="#263238" stroke-linecap="round" stroke-linejoin="round"/>
<path d="M239.047 130.138C239.549 129.25 240.231 128.477 241.051 127.87C241.87 127.262 242.808 126.834 243.804 126.613C247.154 125.906 251.58 128.2 252.092 131.9C252.604 135.6 249.798 137.363 248.035 137.363C246.273 137.363 244.685 134.894 244.685 134.894C244.685 134.894 239.047 132.782 239.047 130.138Z" fill="white" stroke="#263238" stroke-linecap="round" stroke-linejoin="round"/>
<path d="M234.706 147.537C235.383 149.156 236.414 150.604 237.724 151.774C239.034 152.943 240.588 153.805 242.274 154.295C248.223 156.187 259.304 153.485 265.79 154.295L270.65 159.434L263.088 164.294C257.501 162.447 251.816 160.913 246.059 159.7C237.077 157.853 231.466 149.429 231.466 149.429L234.706 147.537Z" fill="#263238"/>
<path d="M150.381 172.076L146.792 174.578L148.509 175.822L151.321 174.889L150.381 172.076Z" fill="#263238" stroke="#263238" stroke-linecap="round" stroke-linejoin="round"/>
<path d="M231.939 111.929C231.939 111.929 230.396 111.365 228.997 110.665C227.597 109.966 229.133 113.186 229.697 113.329C230.26 113.471 231.641 113.75 231.641 113.75L231.939 111.929Z" fill="white" stroke="#263238" stroke-linecap="round" stroke-linejoin="round"/>
<path d="M156.725 162.363L149.766 171.61C149.525 171.928 149.378 172.307 149.341 172.704C149.304 173.102 149.38 173.502 149.558 173.858C149.765 174.271 150.099 174.606 150.511 174.814C150.923 175.022 151.391 175.091 151.846 175.012L161.942 173.256L271.149 110.471C272.398 109.744 273.489 108.773 274.356 107.616C275.223 106.459 275.849 105.14 276.197 103.737C276.546 102.334 276.608 100.875 276.382 99.4474C276.156 98.0195 275.646 96.6515 274.882 95.4245C274.122 94.2086 273.128 93.1561 271.958 92.3285C270.787 91.5009 269.464 90.9146 268.064 90.604C266.665 90.2933 265.218 90.2645 263.807 90.5191C262.396 90.7738 261.05 91.3069 259.848 92.0873L156.725 162.363Z" fill="#5667FD" stroke="#263238" stroke-linecap="round" stroke-linejoin="round"/>
<path d="M259.848 92.0873L230.74 112.175C231.012 117.217 233.176 123.891 241.996 126.84L271.156 110.452C272.436 109.746 273.559 108.788 274.457 107.636C275.356 106.483 276.011 105.16 276.383 103.747C276.756 102.334 276.837 100.86 276.623 99.4141C276.408 97.9685 275.903 96.5815 275.137 95.3371C274.37 94.0927 273.359 93.0168 272.165 92.1746C270.971 91.3324 269.618 90.7415 268.188 90.4377C266.759 90.1338 265.283 90.1233 263.849 90.4069C262.415 90.6904 261.054 91.2621 259.848 92.0873Z" fill="#263238" stroke="#263238" stroke-linecap="round" stroke-linejoin="round"/>
<path d="M149.558 173.858C149.765 174.271 150.099 174.606 150.511 174.814C150.923 175.022 151.391 175.091 151.846 175.012L161.942 173.256C153.777 170.081 156.758 162.363 156.758 162.363L149.798 171.61C149.552 171.925 149.399 172.302 149.357 172.7C149.314 173.097 149.384 173.499 149.558 173.858Z" fill="#5667FD" stroke="#263238" stroke-linecap="round" stroke-linejoin="round"/>
<path d="M222.983 115.15C222.983 115.15 221.415 115.15 221.415 115.862C221.415 116.575 221.007 119.102 221.914 119.031C222.821 118.96 222.737 117.366 222.815 116.808C222.893 116.251 222.983 115.15 222.983 115.15Z" fill="white" stroke="#263238" stroke-linecap="round" stroke-linejoin="round"/>
<path d="M224.701 112.564C224.701 112.564 223.294 112.136 222.977 112.998C222.659 113.86 222.329 117.949 223.294 117.845C224.26 117.742 224.48 114.048 224.701 112.564Z" fill="white" stroke="#263238" stroke-linecap="round" stroke-linejoin="round"/>
<path d="M226.852 112.784C226.852 112.784 225.238 111.385 224.701 112.564C224.163 113.743 224.053 117.1 224.701 117.1C225.349 117.1 226.314 115.7 226.528 114.949C226.689 114.236 226.798 113.513 226.852 112.784Z" fill="white" stroke="#263238" stroke-linecap="round" stroke-linejoin="round"/>
<path d="M229.113 113.4C229.113 113.4 227.066 111.676 226.742 112C226.418 112.324 225.128 115.642 226.094 116.31C227.059 116.977 228.29 114.003 228.29 114.003L229.113 113.4Z" fill="white" stroke="#263238" stroke-linecap="round" stroke-linejoin="round"/>
<path d="M203.414 129.38C203.414 129.38 203.641 132.84 204.561 133.644C205.116 134.128 205.62 134.669 206.064 135.257C206.188 136.136 206.263 137.02 206.291 137.907C206.291 138.944 206.984 138.834 207.587 138.834C208.19 138.834 209.2 140.778 209.777 141.711C210.406 142.563 211.248 143.234 212.22 143.655C213.257 144.225 214.981 142.042 214.981 142.042L217.262 145.832L225.446 140.532L221.415 132.697C221.177 129.979 220.35 127.346 218.992 124.98C216.691 120.833 213.574 118.5 208.39 120.023C203.206 121.545 203.414 129.38 203.414 129.38Z" fill="white" stroke="#263238" stroke-linecap="round" stroke-linejoin="round"/>
<path d="M216.432 143.558L212.926 140.033" stroke="#263238" stroke-linecap="round" stroke-linejoin="round"/>
<path d="M210.38 133.423C210.04 133.647 209.643 133.766 209.236 133.766C208.829 133.766 208.432 133.647 208.092 133.423C207.433 132.978 206.899 132.37 206.544 131.659C206.188 130.947 206.023 130.155 206.064 129.36C206.064 127.578 203.777 128.343 203.777 128.343C203.777 128.343 201.23 131.136 199.454 130.118C197.679 129.101 196.655 127.073 201.742 120.716C206.829 114.359 211.656 114.618 215.719 117.158C219.782 119.699 221.389 132.71 221.389 132.71C221.389 132.71 221.311 135.192 218.007 135.95C214.702 136.709 210.38 135.963 210.38 133.423Z" fill="#263238" stroke="#263238" stroke-linecap="round" stroke-linejoin="round"/>
<path d="M209.751 135.607C209.751 135.607 208.598 131.226 210.438 131.803C212.278 132.38 213.322 136.294 213.205 136.754C213.088 137.214 212.168 137.447 211.708 137.331" fill="white"/>
<path d="M209.751 135.607C209.751 135.607 208.598 131.226 210.438 131.803C212.278 132.38 213.322 136.294 213.205 136.754C213.088 137.214 212.168 137.447 211.708 137.331" stroke="#263238" stroke-linecap="round" stroke-linejoin="round"/>
<path d="M223.067 137.195C220.917 138.399 218.864 139.769 216.924 141.29C214.98 143.02 213.237 148.204 213.237 148.204C213.237 148.204 225.109 140.136 227.182 138.983C229.256 137.83 229.716 137.259 229.716 137.259C229.716 137.259 225.374 136.618 223.067 137.195Z" fill="white" stroke="#263238" stroke-linecap="round" stroke-linejoin="round"/>
<path d="M193.823 168.169C193.823 168.169 190.467 166.614 186.592 164.547C182.717 162.48 178.582 160.16 178.582 160.16C177.468 160.023 176.341 160.023 175.226 160.16C173.273 160.647 171.287 160.991 169.284 161.19C167.988 161.19 167.217 162.486 167.988 162.998C168.759 163.51 172.9 162.998 172.9 162.998L166.42 166.102C166.42 166.102 165.648 167.651 167.456 167.651C169.264 167.651 170.048 167.391 172.102 167.651C174.157 167.91 178.304 165.324 178.304 165.324C178.304 165.324 189.242 177.928 191.782 178.083C194.322 178.239 199.513 172.303 193.823 168.169Z" fill="white" stroke="#263238" stroke-linecap="round" stroke-linejoin="round"/>
<path d="M197.271 165.745C197.271 165.745 191.627 167.333 190.57 169.802C189.514 172.271 189.689 175.971 191.802 178.083C193.914 180.196 194.802 180.727 197.089 179.846C199.377 178.965 199.915 177.558 200.09 176.146C200.264 174.733 201.528 169.977 197.271 165.745Z" fill="white" stroke="#263238" stroke-linecap="round" stroke-linejoin="round"/>
<path d="M272.75 264.954C272.296 265.695 271.885 266.461 271.518 267.248C271.343 267.78 267.462 268.304 267.993 270.067C268.525 271.83 272.575 273.242 274.519 273.417C276.463 273.592 280.351 270.948 281.038 270.242C281.452 269.827 282.074 267.093 281.744 264.954C281.527 263.959 281.038 263.044 280.331 262.31C280.331 262.31 276.981 257.198 272.75 264.954Z" fill="white" stroke="#263238" stroke-linecap="round" stroke-linejoin="round"/>
<path d="M281.744 264.954C281.563 264.061 281.149 263.232 280.545 262.55C279.815 262.554 279.094 262.708 278.425 263.001C277.757 263.294 277.155 263.72 276.657 264.254C274.895 266.367 275.776 271.123 273.657 271.829C272.082 272.354 269.328 270.43 268.032 269.419C267.96 269.629 267.96 269.857 268.032 270.067C268.564 271.829 272.614 273.242 274.558 273.417C276.502 273.592 280.39 270.948 281.077 270.242C281.452 269.827 282.074 267.093 281.744 264.954Z" fill="white" stroke="#263238" stroke-linecap="round" stroke-linejoin="round"/>
<path d="M277.163 266.192C276.456 269.361 277.338 271.48 274.519 273.417C276.463 273.592 280.351 270.948 281.038 270.242C281.452 269.827 282.074 267.093 281.744 264.954C281.668 264.514 281.522 264.09 281.31 263.697H281.038C281.038 263.697 277.862 263.017 277.163 266.192Z" fill="#263238" stroke="#263238" stroke-linecap="round" stroke-linejoin="round"/>
<path d="M266.49 241.51C263.846 236.222 253.148 221.979 253.148 221.979C253.148 221.979 248.216 191.141 248.035 189.015C247.698 184.946 245.087 178.803 245.087 178.803C245.087 178.803 236.578 177.027 220.359 186.546L220.534 191.834L231.841 205.779C232.386 205.332 232.703 205.06 232.703 205.06C232.703 205.06 239.928 223.204 241.516 226.742C243.104 230.28 250.938 242.806 254.826 245.398C256.99 246.843 272.75 264.954 272.75 264.954C272.75 264.954 275.75 262.31 277.687 262.31H280.331C280.331 262.31 269.134 246.797 266.49 241.51Z" fill="#263238" stroke="#263238" stroke-linecap="round" stroke-linejoin="round"/>
<g opacity="0.35">
<path opacity="0.35" d="M269.413 257.509C271.564 260.224 272.983 262.252 272.983 262.252" stroke="white" stroke-linecap="round" stroke-linejoin="round"/>
<path opacity="0.35" d="M237.22 206.939C237.22 206.939 240.013 214.203 243.648 222.581C247.283 230.96 251.748 241.024 258.455 246.052C261.287 248.171 264.287 251.392 266.879 254.398" stroke="white" stroke-linecap="round" stroke-linejoin="round"/>
<path opacity="0.35" d="M244.866 199.59L232.703 205.053L245.605 204.425" stroke="white" stroke-linecap="round" stroke-linejoin="round"/>
</g>
<path d="M242.747 128.907C239.754 129.257 231.997 134.544 231.466 135.076C230.934 135.607 228.822 136.838 227.94 137.544C227.94 137.544 209.796 148.826 208.196 149.856C206.595 150.887 203.44 153.025 203.615 153.744C203.79 154.464 194.27 169.944 194.27 169.944C194.27 169.944 191.452 173.645 194.095 176.995C196.739 180.345 199.208 178.051 200.439 177.351C201.671 176.651 211.371 167.476 211.371 167.476L220.32 188.86C220.32 188.86 232.71 180.552 245.929 181.084L237.116 146.532C237.116 146.532 249.279 137.363 249.629 134.22C249.979 131.077 245.748 128.55 242.747 128.907Z" fill="white"/>
<path d="M242.747 128.907C241.548 129.043 239.585 129.976 237.628 131.084C238.075 130.998 238.536 131.046 238.956 131.221C239.375 131.396 239.734 131.691 239.987 132.069C241.445 133.942 238.321 139.968 238.321 139.968C238.321 139.968 237.025 131.635 237.077 134.136C237.129 136.637 236.429 144.323 236.429 144.323C236.429 144.323 232.269 139.333 232.477 140.584C232.684 141.834 235.386 153.472 237.051 157.84C238.717 162.207 235.801 174.474 234.142 178.012C232.483 181.55 233.494 163.043 231.647 167.612C229.8 172.18 223.56 184.887 222.102 186.138C220.644 187.389 222.569 169.18 223.087 166.808C222.439 168.791 218.156 181.349 218.156 181.349L212.324 166.38C212.324 166.38 202.344 158.268 203.381 159.726C204.418 161.184 206.919 165.758 206.919 165.758C206.919 165.758 200.886 164.508 201.93 164.922C202.973 165.337 207.541 167.625 207.541 167.625C207.541 167.625 198.191 174.312 195.489 175.116C194.762 175.33 194.015 175.466 193.26 175.524C193.454 176.067 193.737 176.575 194.095 177.027C196.739 180.377 199.208 178.083 200.439 177.384C201.671 176.684 211.371 167.508 211.371 167.508L220.32 188.86C220.32 188.86 232.71 180.552 245.929 181.084L237.116 146.532C237.116 146.532 249.279 137.363 249.629 134.22C249.979 131.077 245.748 128.55 242.747 128.907Z" fill="#5667FD"/>
<path opacity="0.5" d="M242.747 128.907C241.548 129.043 239.585 129.976 237.628 131.084C238.075 130.998 238.536 131.046 238.956 131.221C239.375 131.396 239.734 131.691 239.987 132.069C241.445 133.942 238.321 139.968 238.321 139.968C238.321 139.968 237.025 131.635 237.077 134.136C237.129 136.637 236.429 144.323 236.429 144.323C236.429 144.323 232.269 139.333 232.477 140.584C232.684 141.834 235.386 153.472 237.051 157.84C238.717 162.207 235.801 174.474 234.142 178.012C232.483 181.55 233.494 163.043 231.647 167.612C229.8 172.18 223.56 184.887 222.102 186.138C220.644 187.389 222.569 169.18 223.087 166.808C222.439 168.791 218.156 181.349 218.156 181.349L212.324 166.38C212.324 166.38 202.344 158.268 203.381 159.726C204.418 161.184 206.919 165.758 206.919 165.758C206.919 165.758 200.886 164.508 201.93 164.922C202.973 165.337 207.541 167.625 207.541 167.625C207.541 167.625 198.191 174.312 195.489 175.116C194.762 175.33 194.015 175.466 193.26 175.524C193.454 176.067 193.737 176.575 194.095 177.027C196.739 180.377 199.208 178.083 200.439 177.384C201.671 176.684 211.371 167.508 211.371 167.508L220.32 188.86C220.32 188.86 232.71 180.552 245.929 181.084L237.116 146.532C237.116 146.532 249.279 137.363 249.629 134.22C249.979 131.077 245.748 128.55 242.747 128.907Z" fill="white"/>
<path d="M242.747 128.907C239.754 129.257 231.997 134.544 231.466 135.076C230.934 135.607 228.822 136.838 227.94 137.544C227.94 137.544 209.796 148.826 208.196 149.856C206.595 150.887 203.44 153.025 203.615 153.744C203.79 154.464 194.27 169.944 194.27 169.944C194.27 169.944 191.452 173.645 194.095 176.995C196.739 180.345 199.208 178.051 200.439 177.351C201.671 176.651 211.371 167.476 211.371 167.476L220.32 188.86C220.32 188.86 232.71 180.552 245.929 181.084L237.116 146.532C237.116 146.532 249.279 137.363 249.629 134.22C249.979 131.077 245.748 128.55 242.747 128.907Z" stroke="#263238" stroke-linecap="round" stroke-linejoin="round"/>
<path d="M220.32 188.86C219.799 184.002 220.048 179.092 221.059 174.312L220.32 188.86Z" fill="white"/>
<path d="M220.32 188.86C219.799 184.002 220.048 179.092 221.059 174.312" stroke="#263238" stroke-linecap="round" stroke-linejoin="round"/>
<path d="M218.642 178.057C218.642 178.057 218.642 175.077 221.992 165.745L218.642 178.057Z" fill="white"/>
<path d="M218.642 178.057C218.642 178.057 218.642 175.077 221.992 165.745" stroke="#263238" stroke-linecap="round" stroke-linejoin="round"/>
<path d="M204.496 159.751L211.371 167.508L204.321 162.395" fill="white"/>
<path d="M204.496 159.751L211.371 167.508L204.321 162.395" stroke="#263238" stroke-linecap="round" stroke-linejoin="round"/>
<path d="M237.11 136.663V146.532L239.397 133.838" fill="white"/>
<path d="M237.11 136.663V146.532L239.397 133.838" stroke="#263238" stroke-linecap="round" stroke-linejoin="round"/>
<path d="M223.145 166.588C223.118 166.659 223.099 166.733 223.087 166.808C223.165 166.568 223.191 166.478 223.145 166.588Z" fill="#263238"/>
<path d="M227.176 124.332C226.69 124.335 226.216 124.183 225.823 123.896C225.43 123.61 225.14 123.205 224.995 122.741C224.849 122.277 224.857 121.779 225.017 121.32C225.176 120.861 225.479 120.465 225.88 120.191L252.014 102.267C252.259 102.097 252.536 101.977 252.828 101.914C253.12 101.85 253.421 101.845 253.715 101.898C254.009 101.952 254.29 102.062 254.541 102.224C254.792 102.386 255.009 102.595 255.179 102.841C255.349 103.086 255.47 103.363 255.533 103.655C255.596 103.947 255.601 104.248 255.548 104.542C255.495 104.836 255.384 105.117 255.222 105.368C255.061 105.619 254.851 105.836 254.606 106.006L228.472 123.936C228.09 124.197 227.638 124.335 227.176 124.332Z" fill="#263238"/>
<path d="M233.96 120.547L254.282 106.564" stroke="white" stroke-linecap="round" stroke-linejoin="round"/>
<path d="M231.667 116.284L251.988 102.306" stroke="white" stroke-linecap="round" stroke-linejoin="round"/>
<path d="M220.534 191.808C220.534 191.808 200.958 214.572 200.53 219.756C200.102 224.94 203.984 230.124 208.734 231.42C213.484 232.716 259.79 233.747 259.79 233.747L259.356 225.109L218.24 218.894L231.848 205.753" fill="#263238"/>
<path d="M220.534 191.808C220.534 191.808 200.958 214.572 200.53 219.756C200.102 224.94 203.984 230.124 208.734 231.42C213.484 232.716 259.79 233.747 259.79 233.747L259.356 225.109L218.24 218.894L231.848 205.753" stroke="#263238" stroke-linecap="round" stroke-linejoin="round"/>
<g opacity="0.35">
<path opacity="0.35" d="M251.133 228.932L254.262 229.288" stroke="white" stroke-linecap="round" stroke-linejoin="round"/>
<path opacity="0.35" d="M207.107 218.097L206.213 219.231C206.213 219.231 211.799 218.953 210.684 220.067C209.944 220.943 209.46 222.006 209.285 223.139L212.635 222.303C212.635 222.303 210.691 226.191 212.078 225.938C213.139 225.677 214.169 225.301 215.149 224.817L247.549 228.517" stroke="white" stroke-linecap="round" stroke-linejoin="round"/>
<path opacity="0.35" d="M225.77 187.92C225.77 187.92 220.456 191.555 222.977 192.113C225.498 192.67 228.563 191.834 227.72 192.948C226.498 194.316 225.2 195.614 223.832 196.836L211.358 212.674" stroke="white" stroke-linecap="round" stroke-linejoin="round"/>
<path opacity="0.35" d="M222.977 192.132C222.977 192.132 226.048 187.661 233.034 187.382" stroke="white" stroke-linecap="round" stroke-linejoin="round"/>
</g>
<path d="M258.461 225.031C258.461 225.031 263.328 223.923 264.216 225.472C265.103 227.02 265.544 230.779 265.544 232.548C265.544 234.317 266.84 237.194 266.646 239.851C266.451 242.507 262.446 245.378 261.118 245.378C259.79 245.378 259.822 237.414 258.461 234.317C257.1 231.219 256.919 226.8 258.461 225.031Z" fill="white" stroke="#263238" stroke-linecap="round" stroke-linejoin="round"/>
<path d="M261.533 245.307C263.127 244.866 266.445 242.268 266.645 239.851C266.872 237.194 265.544 234.317 265.544 232.548C265.544 230.779 265.097 227.02 264.215 225.472C263.82 224.778 262.628 224.616 261.429 224.649C261.108 224.977 260.867 225.376 260.725 225.813C260.584 226.251 260.545 226.715 260.613 227.169C260.924 229.703 263.457 239.993 262.511 242.844C262.233 243.684 261.906 244.506 261.533 245.307Z" fill="white" stroke="#263238" stroke-linecap="round" stroke-linejoin="round"/>
<path d="M264.216 225.504C263.976 225.164 263.613 224.932 263.205 224.856C262.368 225.999 261.964 227.402 262.064 228.815C262.343 233.034 263.192 236.416 263.47 240.071C263.673 241.678 263.424 243.309 262.751 244.782C264.41 243.791 266.49 241.788 266.639 239.89C266.866 237.233 265.538 234.356 265.538 232.587C265.538 230.818 265.097 227.02 264.216 225.504Z" fill="#263238" stroke="#263238" stroke-linecap="round" stroke-linejoin="round"/>
</svg>
