<svg width="354" height="236" viewBox="0 0 354 236" fill="none" xmlns="http://www.w3.org/2000/svg">
<path d="M340.919 210.082C340.919 210.153 267.1 210.204 176.068 210.204C85.0364 210.204 11.1982 210.153 11.1982 210.082C11.1982 210.011 84.9988 209.96 176.068 209.96C267.137 209.96 340.919 210.016 340.919 210.082Z" fill="#263238"/>
<path d="M277.228 62.0197H72.0554C68.268 62.0197 65.1978 65.09 65.1978 68.8774V199.911C65.1978 203.698 68.268 206.769 72.0554 206.769H277.228C281.016 206.769 284.086 203.698 284.086 199.911V68.8774C284.086 65.09 281.016 62.0197 277.228 62.0197Z" fill="#455A64"/>
<path d="M58.0342 197.416H295.18V201.704C295.18 203.926 294.297 206.057 292.726 207.628C291.155 209.199 289.024 210.082 286.802 210.082H66.3933C64.1713 210.082 62.0404 209.199 60.4692 207.628C58.898 206.057 58.0154 203.926 58.0154 201.704V197.416H58.0342Z" fill="#455A64"/>
<path d="M153.067 196.061L156.008 200.744H197.417L200.147 196.061H153.067Z" fill="#263238"/>
<path d="M282.203 196.061C282.203 196.141 233.621 196.202 173.71 196.202C113.799 196.202 65.1978 196.141 65.1978 196.061C65.1978 195.981 113.771 195.92 173.71 195.92C233.649 195.92 282.203 195.981 282.203 196.061Z" fill="#263238"/>
<path d="M275.421 70.3411H73.0061C72.1561 70.3411 71.467 71.0302 71.467 71.8802V190.695C71.467 191.545 72.1561 192.234 73.0061 192.234H275.421C276.271 192.234 276.96 191.545 276.96 190.695V71.8802C276.96 71.0302 276.271 70.3411 275.421 70.3411Z" fill="#EBEBEB"/>
<path d="M276.739 192.413H71.2458L71.4671 79.4532H276.739V192.413Z" fill="white"/>
<path d="M88.3216 75.0525C88.3244 75.378 88.2304 75.6969 88.0516 75.9689C87.8728 76.2409 87.6173 76.4536 87.3174 76.5801C87.0175 76.7066 86.6868 76.7412 86.3672 76.6794C86.0477 76.6176 85.7537 76.4623 85.5225 76.2331C85.2914 76.004 85.1335 75.7113 85.069 75.3923C85.0045 75.0733 85.0362 74.7423 85.1601 74.4413C85.284 74.1404 85.4945 73.883 85.7649 73.7019C86.0353 73.5207 86.3535 73.424 86.6789 73.424C87.1125 73.4228 87.5289 73.5935 87.8369 73.8988C88.1448 74.204 88.3191 74.6189 88.3216 75.0525Z" fill="#263238"/>
<path d="M78.3765 75.0525C78.3793 75.3786 78.285 75.6981 78.1056 75.9704C77.9261 76.2427 77.6698 76.4554 77.369 76.5814C77.0683 76.7075 76.7369 76.7412 76.4169 76.6783C76.097 76.6154 75.803 76.4586 75.5724 76.2281C75.3419 75.9975 75.1851 75.7035 75.1222 75.3836C75.0593 75.0636 75.093 74.7322 75.2191 74.4315C75.3451 74.1308 75.5578 73.8744 75.8301 73.6949C76.1024 73.5155 76.4219 73.4212 76.748 73.424C77.1791 73.4265 77.5919 73.5988 77.8968 73.9037C78.2017 74.2086 78.374 74.6214 78.3765 75.0525Z" fill="#263238"/>
<path d="M83.149 75.0525C83.149 75.3774 83.0527 75.695 82.8722 75.9651C82.6917 76.2352 82.4352 76.4458 82.135 76.5701C81.8349 76.6944 81.5046 76.727 81.1859 76.6636C80.8673 76.6002 80.5746 76.4437 80.3449 76.214C80.1152 75.9843 79.9587 75.6916 79.8953 75.373C79.832 75.0543 79.8645 74.7241 79.9888 74.4239C80.1131 74.1238 80.3237 73.8672 80.5938 73.6867C80.8639 73.5062 81.1815 73.4099 81.5064 73.4099C81.7223 73.4093 81.9362 73.4513 82.1357 73.5337C82.3353 73.616 82.5166 73.737 82.6693 73.8896C82.8219 74.0423 82.9429 74.2236 83.0252 74.4232C83.1076 74.6227 83.1496 74.8366 83.149 75.0525Z" fill="#263238"/>
<path d="M276.96 181.503H71.2458V192.413H276.96V181.503Z" fill="#263238"/>
<path d="M79.0213 188.22V188.568H77.3834V188.295L78.2635 187.457C78.48 187.25 78.5177 187.118 78.5177 186.986C78.5177 186.784 78.3765 186.666 78.1035 186.666C78.0051 186.661 77.9068 186.679 77.8168 186.719C77.7268 186.759 77.6476 186.82 77.5858 186.897L77.2939 186.676C77.3971 186.553 77.5273 186.456 77.6744 186.393C77.8214 186.329 77.9812 186.3 78.1411 186.309C78.6118 186.309 78.9366 186.549 78.9366 186.944C78.9335 187.082 78.8983 187.217 78.8337 187.339C78.7692 187.461 78.677 187.566 78.5647 187.645L77.9717 188.21L79.0213 188.22Z" fill="white"/>
<path d="M79.2423 187.118C79.2424 187.066 79.2579 187.015 79.2871 186.971C79.3163 186.928 79.3577 186.894 79.4062 186.874C79.4546 186.855 79.5078 186.85 79.5591 186.86C79.6103 186.871 79.6573 186.896 79.694 186.934C79.7306 186.971 79.7553 187.018 79.765 187.07C79.7746 187.121 79.7687 187.174 79.748 187.222C79.7274 187.27 79.6929 187.311 79.6489 187.34C79.6049 187.368 79.5535 187.383 79.5012 187.382C79.4666 187.382 79.4323 187.376 79.4003 187.363C79.3682 187.35 79.3392 187.33 79.315 187.306C79.2908 187.281 79.2718 187.252 79.2593 187.22C79.2468 187.187 79.2411 187.153 79.2423 187.118ZM79.2423 188.328C79.2373 188.291 79.2403 188.253 79.2512 188.217C79.262 188.181 79.2804 188.148 79.3051 188.119C79.3299 188.091 79.3604 188.068 79.3946 188.053C79.4288 188.037 79.466 188.029 79.5036 188.029C79.5411 188.029 79.5783 188.037 79.6125 188.053C79.6467 188.068 79.6772 188.091 79.702 188.119C79.7267 188.148 79.7451 188.181 79.7559 188.217C79.7668 188.253 79.7698 188.291 79.7648 188.328C79.7698 188.365 79.7668 188.403 79.7559 188.439C79.7451 188.475 79.7267 188.508 79.702 188.536C79.6772 188.565 79.6467 188.587 79.6125 188.603C79.5783 188.619 79.5411 188.627 79.5036 188.627C79.466 188.627 79.4288 188.619 79.3946 188.603C79.3604 188.587 79.3299 188.565 79.3051 188.536C79.2804 188.508 79.262 188.475 79.2512 188.439C79.2403 188.403 79.2373 188.365 79.2423 188.328Z" fill="white"/>
<path d="M80.7957 186.346V188.568H80.3862V186.685H79.9155V186.337L80.7957 186.346Z" fill="white"/>
<path d="M83.2195 188.064H82.8242V188.568H82.4241V188.064H81.2051V187.796L82.3017 186.384H82.7442L81.7087 187.754H82.4382V187.306H82.8242V187.754H83.2195V188.064Z" fill="white"/>
<path d="M255.46 187.175H86.8484V187.942H255.46V187.175Z" fill="white"/>
<path d="M139.412 186.351H86.7213V188.403H139.412V186.351Z" fill="#5667FD"/>
<path d="M141.116 187.561C141.116 188.068 140.966 188.564 140.684 188.986C140.402 189.408 140.002 189.736 139.533 189.931C139.064 190.125 138.548 190.175 138.051 190.076C137.553 189.978 137.096 189.733 136.737 189.374C136.379 189.016 136.134 188.559 136.035 188.061C135.936 187.563 135.987 187.048 136.181 186.579C136.375 186.11 136.704 185.71 137.126 185.428C137.548 185.146 138.044 184.996 138.551 184.996C139.232 184.996 139.884 185.266 140.365 185.747C140.846 186.228 141.116 186.88 141.116 187.561Z" fill="#5667FD"/>
<path d="M259.705 187.537C259.705 187.64 259.683 187.741 259.64 187.834C259.598 187.928 259.537 188.011 259.461 188.08C259.385 188.149 259.296 188.201 259.198 188.233C259.101 188.265 258.998 188.276 258.896 188.267C258.289 188.267 257.955 187.876 257.955 187.161C257.936 187.009 257.951 186.854 257.998 186.709C258.045 186.563 258.123 186.429 258.227 186.317C258.331 186.204 258.458 186.116 258.599 186.058C258.741 185.999 258.894 185.973 259.047 185.979C259.251 185.974 259.452 186.025 259.63 186.125L259.475 186.436C259.349 186.358 259.203 186.321 259.056 186.328C258.637 186.328 258.373 186.586 258.373 187.09C258.45 187.011 258.542 186.949 258.644 186.909C258.747 186.869 258.857 186.852 258.967 186.859C259.06 186.853 259.154 186.866 259.243 186.897C259.331 186.928 259.412 186.976 259.481 187.04C259.551 187.103 259.606 187.18 259.645 187.265C259.683 187.351 259.704 187.443 259.705 187.537ZM259.305 187.537C259.305 187.306 259.131 187.161 258.863 187.161C258.807 187.151 258.749 187.154 258.693 187.169C258.638 187.183 258.586 187.209 258.542 187.245C258.497 187.281 258.461 187.326 258.435 187.378C258.41 187.429 258.395 187.485 258.392 187.542C258.392 187.749 258.557 187.914 258.863 187.914C258.916 187.922 258.97 187.92 259.022 187.906C259.074 187.892 259.123 187.868 259.164 187.834C259.206 187.8 259.24 187.758 259.265 187.71C259.289 187.662 259.303 187.61 259.305 187.556V187.537Z" fill="white"/>
<path d="M259.908 186.775C259.903 186.737 259.906 186.7 259.917 186.664C259.928 186.628 259.946 186.594 259.971 186.566C259.995 186.538 260.026 186.515 260.06 186.5C260.094 186.484 260.131 186.476 260.169 186.476C260.207 186.476 260.244 186.484 260.278 186.5C260.312 186.515 260.343 186.538 260.367 186.566C260.392 186.594 260.411 186.628 260.421 186.664C260.432 186.7 260.435 186.737 260.43 186.775C260.435 186.812 260.432 186.85 260.421 186.886C260.411 186.922 260.392 186.955 260.367 186.983C260.343 187.012 260.312 187.034 260.278 187.05C260.244 187.065 260.207 187.073 260.169 187.073C260.131 187.073 260.094 187.065 260.06 187.05C260.026 187.034 259.995 187.012 259.971 186.983C259.946 186.955 259.928 186.922 259.917 186.886C259.906 186.85 259.903 186.812 259.908 186.775ZM259.908 187.984C259.903 187.947 259.906 187.909 259.917 187.873C259.928 187.837 259.946 187.804 259.971 187.776C259.995 187.747 260.026 187.725 260.06 187.709C260.094 187.694 260.131 187.686 260.169 187.686C260.207 187.686 260.244 187.694 260.278 187.709C260.312 187.725 260.343 187.747 260.367 187.776C260.392 187.804 260.411 187.837 260.421 187.873C260.432 187.909 260.435 187.947 260.43 187.984C260.435 188.022 260.432 188.059 260.421 188.095C260.411 188.131 260.392 188.165 260.367 188.193C260.343 188.221 260.312 188.244 260.278 188.259C260.244 188.275 260.207 188.283 260.169 188.283C260.131 188.283 260.094 188.275 260.06 188.259C260.026 188.244 259.995 188.221 259.971 188.193C259.946 188.165 259.928 188.131 259.917 188.095C259.906 188.059 259.903 188.022 259.908 187.984Z" fill="white"/>
<path d="M260.694 187.113C260.694 186.384 261.094 185.97 261.635 185.97C262.176 185.97 262.577 186.384 262.577 187.113C262.577 187.843 262.176 188.257 261.635 188.257C261.094 188.257 260.694 187.843 260.694 187.113ZM262.134 187.113C262.134 186.577 261.927 186.332 261.621 186.332C261.315 186.332 261.108 186.577 261.108 187.113C261.108 187.65 261.32 187.9 261.621 187.9C261.922 187.9 262.134 187.65 262.134 187.113Z" fill="white"/>
<path d="M262.826 187.113C262.826 186.384 263.226 185.97 263.767 185.97C264.308 185.97 264.709 186.384 264.709 187.113C264.709 187.843 264.308 188.257 263.767 188.257C263.226 188.257 262.826 187.843 262.826 187.113ZM264.271 187.113C264.271 186.577 264.059 186.332 263.753 186.332C263.447 186.332 263.245 186.577 263.245 187.113C263.245 187.65 263.452 187.9 263.753 187.9C264.054 187.9 264.271 187.65 264.271 187.113Z" fill="white"/>
<path d="M268.276 186.977H267.504V184.76H269.721V185.527H268.276V186.977Z" fill="white"/>
<path d="M269.721 189.867H267.504V187.655H268.272V189.1H269.721V189.867Z" fill="white"/>
<path d="M273.251 189.867H271.039V189.1H272.479V187.65H273.251V189.867Z" fill="white"/>
<path d="M273.251 186.972H272.484V185.527H271.034V184.76H273.251V186.972Z" fill="white"/>
<path d="M99.4293 86.1696H87.3144L81.2616 96.6608L87.3144 107.147H99.4293L105.482 96.6608L99.4293 86.1696Z" fill="#EBEBEB"/>
<path d="M88.3028 98.7129C87.7396 98.1338 87.2438 97.4928 86.8249 96.802C86.4026 96.1048 86.2254 95.2864 86.3213 94.4769C86.4484 94.0232 86.5505 93.5628 86.6273 93.0979C86.6743 92.4483 86.4013 91.7706 86.6273 91.1634C86.985 90.2221 88.2605 90.0668 89.0371 89.4125C89.6395 88.8995 89.936 88.0711 90.5997 87.6428C91.2161 87.3165 91.9283 87.2197 92.6094 87.3698C93.2833 87.5251 93.9757 87.5853 94.6662 87.5487C95.1433 87.4466 95.6146 87.3193 96.0782 87.1675C96.5445 87.0208 97.049 87.0562 97.4902 87.2663C97.7058 87.384 97.8668 87.5813 97.9389 87.8161C98.011 88.0509 97.9885 88.3046 97.8762 88.523C98.6716 88.1559 99.6788 88.7771 99.8953 89.6196C99.9783 90.0509 99.939 90.4968 99.7818 90.9068C99.6246 91.3169 99.3558 91.6748 99.0058 91.94C98.3016 92.4646 97.4756 92.8015 96.6054 92.919C94.172 93.3897 91.5363 93.1214 89.4418 91.8035" fill="#263238"/>
<path d="M99.5329 101.302C99.4529 99.8002 99.034 96.722 98.6198 93.9404C98.4056 92.4994 97.6577 91.1915 96.5243 90.2761C95.391 89.3607 93.955 88.9046 92.5012 88.9984H92.1999C88.9806 89.4031 87.5262 92.3636 88.0204 95.5877L88.9617 107.143H96.8219C96.8219 107.143 96.6336 105.114 96.6336 105.095C96.6336 105.076 99.7023 104.408 99.5329 101.302Z" fill="#FFBE9D"/>
<path d="M96.6289 105.058C95.1962 105.178 93.7599 104.872 92.5011 104.177C92.5011 104.177 93.6119 106.347 96.69 105.862L96.6289 105.058Z" fill="#EB996E"/>
<path d="M97.6173 96.6043C97.6265 96.719 97.5902 96.8327 97.5162 96.9207C97.4422 97.0088 97.3365 97.0642 97.222 97.075C97.1669 97.0822 97.1109 97.0784 97.0573 97.0638C97.0037 97.0492 96.9536 97.0241 96.9098 96.99C96.866 96.9558 96.8294 96.9133 96.8022 96.8648C96.775 96.8164 96.7577 96.7631 96.7513 96.7079C96.7434 96.5935 96.7802 96.4805 96.8539 96.3927C96.9277 96.3049 97.0326 96.2491 97.1467 96.2372C97.2017 96.23 97.2577 96.2338 97.3113 96.2484C97.3649 96.263 97.4151 96.2881 97.4589 96.3222C97.5027 96.3564 97.5392 96.3989 97.5664 96.4474C97.5936 96.4958 97.611 96.5491 97.6173 96.6043Z" fill="#263238"/>
<path d="M98.055 95.503C98.0032 95.5642 97.6502 95.3383 97.1702 95.3712C96.6901 95.4041 96.3606 95.6677 96.3041 95.6112C96.2477 95.5548 96.3041 95.4795 96.4736 95.3571C96.6705 95.2013 96.9102 95.1094 97.1607 95.0935C97.4092 95.0756 97.6568 95.1383 97.8667 95.2724C98.0221 95.3759 98.0786 95.4747 98.055 95.503Z" fill="#263238"/>
<path d="M93.1083 96.9291C93.1097 97.0419 93.0706 97.1515 92.998 97.2379C92.9255 97.3243 92.8243 97.3817 92.7129 97.3998C92.6014 97.4118 92.4896 97.3795 92.4016 97.31C92.3136 97.2405 92.2564 97.1392 92.2422 97.0279C92.2408 96.9151 92.2799 96.8055 92.3525 96.7192C92.425 96.6328 92.5262 96.5753 92.6376 96.5573C92.7491 96.5453 92.8609 96.5775 92.9489 96.647C93.0369 96.7166 93.0941 96.8178 93.1083 96.9291Z" fill="#263238"/>
<path d="M93.3672 95.9077C93.3154 95.9689 92.9624 95.743 92.4823 95.7759C92.0022 95.8089 91.6728 96.0678 91.6163 96.016C91.5598 95.9642 91.6163 95.8842 91.7857 95.7618C91.9828 95.6025 92.2246 95.5084 92.4775 95.4924C92.7304 95.4764 92.9821 95.5393 93.1977 95.6724C93.3342 95.7759 93.3907 95.8795 93.3672 95.9077Z" fill="#263238"/>
<path d="M95.3345 99.3107C95.581 99.214 95.8388 99.1492 96.1017 99.1177C96.2241 99.1177 96.337 99.0659 96.3512 98.9812C96.3531 98.8558 96.317 98.7327 96.2476 98.6282L95.824 97.7245C95.4384 96.9667 95.1126 96.1798 94.8497 95.3712C95.2986 96.1025 95.6874 96.8691 96.0123 97.6633C96.1535 97.9787 96.29 98.2846 96.4218 98.5717C96.504 98.714 96.537 98.8794 96.5159 99.0424C96.5004 99.0863 96.4756 99.1263 96.4431 99.1597C96.4106 99.193 96.3712 99.2188 96.3276 99.2353C96.2604 99.2572 96.1909 99.2714 96.1205 99.2777C95.861 99.3222 95.5969 99.3332 95.3345 99.3107Z" fill="#263238"/>
<path d="M93.3625 94.0251C93.3248 94.1569 92.8447 94.1286 92.2894 94.2369C91.734 94.3451 91.2915 94.524 91.2068 94.411C91.1221 94.2981 91.2445 94.2322 91.4186 94.091C91.6504 93.9189 91.9199 93.8043 92.2046 93.7568C92.4878 93.7011 92.7803 93.7156 93.0565 93.7992C93.2683 93.8698 93.3813 93.9639 93.3625 94.0251Z" fill="#263238"/>
<path d="M97.7867 94.1333C97.7067 94.2463 97.3725 94.1569 96.9772 94.1757C96.5818 94.1945 96.2523 94.2981 96.1676 94.1757C96.0829 94.0533 96.1676 94.011 96.3135 93.898C96.4998 93.7582 96.7255 93.6808 96.9583 93.6768C97.1906 93.6665 97.4204 93.7273 97.6173 93.8509C97.7632 93.9686 97.8196 94.0769 97.7867 94.1333Z" fill="#263238"/>
<path d="M88.4205 97.8987C88.364 97.8987 86.2413 97.428 86.4531 99.5319C86.6649 101.636 88.9617 100.944 88.957 100.897C88.9523 100.85 88.4205 97.8987 88.4205 97.8987Z" fill="#FFBE9D"/>
<path d="M88.0156 100.181C88.0156 100.181 87.9827 100.21 87.9262 100.243C87.8415 100.289 87.7418 100.301 87.6485 100.276C87.503 100.203 87.3796 100.092 87.291 99.9558C87.2025 99.8192 87.152 99.6615 87.1449 99.4989C87.1204 99.3185 87.1381 99.1348 87.1967 98.9624C87.2089 98.8933 87.2381 98.8283 87.2816 98.7732C87.3251 98.7182 87.3817 98.6748 87.4461 98.647C87.4873 98.6329 87.532 98.6332 87.573 98.6477C87.614 98.6622 87.6489 98.6902 87.6721 98.727C87.7097 98.7835 87.7003 98.8306 87.7097 98.8306C87.7191 98.8306 87.7521 98.7929 87.7097 98.7035C87.6927 98.6535 87.6596 98.6104 87.6156 98.5811C87.5844 98.5614 87.5496 98.5483 87.5131 98.5426C87.4767 98.5369 87.4394 98.5388 87.4038 98.5482C87.3189 98.575 87.2421 98.6226 87.1805 98.6867C87.1188 98.7509 87.0742 98.8295 87.0508 98.9153C86.9802 99.1078 86.9576 99.3146 86.9849 99.5178C86.9901 99.7077 87.0527 99.8917 87.1644 100.045C87.2761 100.199 87.4318 100.315 87.6109 100.379C87.6697 100.39 87.7302 100.387 87.788 100.372C87.8458 100.356 87.8994 100.328 87.945 100.29C88.0439 100.252 88.0439 100.181 88.0156 100.181Z" fill="#EB996E"/>
<path d="M98.4645 91.0363C98.3186 91.8788 96.6054 92.6554 95.1699 92.6131C93.8614 92.5754 93.2119 91.9259 92.2658 91.4646C91.6634 91.1728 91.6634 91.1728 90.8538 91.3046C90.1949 91.4129 89.8513 92.1895 89.4842 92.7496C90.1902 94.2886 89.9031 96.0772 89.6019 97.7433C89.5903 97.9303 89.5156 98.1079 89.3901 98.2469C89.2544 98.3303 89.0938 98.3632 88.9363 98.34C88.7788 98.3168 88.6345 98.2388 88.5287 98.1199C88.1805 97.7452 87.9483 97.2776 87.8604 96.7738C87.5639 95.6488 87.4935 94.4761 87.6533 93.3238C87.8094 92.1709 88.3003 91.0892 89.0653 90.2127C90.0738 89.1496 91.4561 88.5201 92.9201 88.4571C94.3778 88.4033 95.8155 88.81 97.029 89.6196C97.6079 89.9679 98.0927 90.4527 98.441 91.0316" fill="#263238"/>
<path d="M95.6499 100.403L94.5674 99.899C94.5073 99.8648 94.4387 99.8484 94.3697 99.8519C94.2943 99.8688 94.2284 99.9144 94.1861 99.979C94.0592 100.13 93.9798 100.315 93.958 100.511C93.9362 100.707 93.973 100.905 94.0638 101.08C94.1625 101.252 94.3186 101.383 94.5045 101.451C94.6904 101.519 94.8943 101.52 95.0804 101.452C95.2623 101.352 95.4139 101.205 95.5191 101.026C95.6243 100.847 95.6792 100.643 95.6782 100.436L95.6499 100.403Z" fill="#EB996E"/>
<path d="M95.104 101.532C95.104 101.532 94.878 101.706 94.4686 101.589C94.2295 101.508 94.0296 101.34 93.9085 101.118C93.8315 100.985 93.7853 100.837 93.773 100.684C93.7608 100.53 93.783 100.377 93.8379 100.233C93.8954 100.083 93.9854 99.9484 94.1014 99.8378C94.1577 99.786 94.2192 99.7403 94.285 99.7013C94.3285 99.6782 94.377 99.6662 94.4262 99.6662C94.4754 99.6662 94.5239 99.6782 94.5674 99.7013C94.8169 99.8378 94.9816 99.9555 95.1463 100.059C95.4617 100.271 95.6499 100.417 95.617 100.445C95.584 100.473 95.3817 100.384 95.0428 100.21L94.4639 99.9084C94.4215 99.9084 94.4262 99.9084 94.3791 99.9084C94.3318 99.9402 94.2877 99.9764 94.2473 100.017C94.1587 100.104 94.0911 100.21 94.0497 100.327C94.0075 100.438 93.9891 100.557 93.9956 100.675C94.0021 100.793 94.0333 100.909 94.0873 101.014C94.179 101.192 94.3284 101.333 94.5109 101.415C94.8639 101.565 95.104 101.49 95.104 101.532Z" fill="#263238"/>
<path d="M94.7697 96.6561C94.7697 96.6561 94.7698 96.4631 94.6568 96.1289C94.5204 95.6625 94.2343 95.254 93.8425 94.9664C93.5289 94.7332 93.1566 94.5917 92.7672 94.5578C92.3778 94.5239 91.9867 94.5989 91.6375 94.7744C91.2882 94.9499 90.9947 95.219 90.7895 95.5517C90.5844 95.8844 90.4757 96.2676 90.4757 96.6584C90.4757 97.0493 90.5844 97.4325 90.7895 97.7652C90.9947 98.0978 91.2882 98.367 91.6375 98.5425C91.9867 98.718 92.3778 98.793 92.7672 98.7591C93.1566 98.7252 93.5289 98.5837 93.8425 98.3505C94.2343 98.0629 94.5204 97.6544 94.6568 97.1879C94.7509 96.8538 94.7462 96.6561 94.7697 96.6561C94.7933 96.6561 94.7697 96.7079 94.7697 96.802C94.7728 96.9397 94.7585 97.0773 94.7274 97.2115C94.6215 97.7174 94.3397 98.1693 93.932 98.487C93.6271 98.7249 93.2673 98.8824 92.8857 98.9449C92.5041 99.0074 92.1129 98.9729 91.7481 98.8447C91.2967 98.6841 90.906 98.3878 90.6298 97.9964C90.3535 97.6049 90.2052 97.1376 90.2052 96.6584C90.2052 96.1793 90.3535 95.712 90.6298 95.3205C90.906 94.9291 91.2967 94.6327 91.7481 94.4722C92.1129 94.344 92.5041 94.3095 92.8857 94.372C93.2673 94.4345 93.6271 94.592 93.932 94.8299C94.3397 95.1476 94.6215 95.5995 94.7274 96.1054C94.7587 96.2396 94.773 96.3772 94.7697 96.5149C94.7839 96.609 94.7792 96.6561 94.7697 96.6561Z" fill="#263238"/>
<path d="M100.055 96.449C100.032 96.449 100.055 96.2607 99.9424 95.936C99.8105 95.4826 99.5326 95.0854 99.1517 94.8064C98.8464 94.5796 98.4841 94.4421 98.1052 94.4093C97.7263 94.3764 97.3458 94.4495 97.006 94.6204C96.6663 94.7912 96.3807 95.0531 96.1811 95.3769C95.9815 95.7006 95.8759 96.0734 95.8759 96.4537C95.8759 96.834 95.9815 97.2068 96.1811 97.5306C96.3807 97.8543 96.6663 98.1162 97.006 98.2871C97.3458 98.4579 97.7263 98.531 98.1052 98.4982C98.4841 98.4653 98.8464 98.3278 99.1517 98.101C99.5326 97.822 99.8105 97.4249 99.9424 96.9714C100.037 96.6467 100.032 96.4537 100.055 96.4537C100.079 96.4537 100.055 96.5008 100.055 96.5949C100.058 96.7293 100.045 96.8635 100.018 96.995C99.9126 97.4875 99.6377 97.9273 99.2411 98.2375C98.9437 98.4702 98.5924 98.6241 98.2197 98.685C97.847 98.7459 97.465 98.7118 97.109 98.5858C96.6692 98.4288 96.2887 98.1397 96.0196 97.758C95.7506 97.3763 95.6062 96.9207 95.6062 96.4537C95.6062 95.9867 95.7506 95.5312 96.0196 95.1495C96.2887 94.7678 96.6692 94.4786 97.109 94.3216C97.465 94.1956 97.847 94.1615 98.2197 94.2224C98.5924 94.2833 98.9437 94.4372 99.2411 94.6699C99.638 94.9819 99.9129 95.4233 100.018 95.9172C100.046 96.0486 100.058 96.1829 100.055 96.3172C100.069 96.4019 100.065 96.449 100.055 96.449Z" fill="#263238"/>
<path d="M95.744 95.9642C95.6969 96.0066 95.4851 95.8701 95.2027 95.8795C94.9203 95.8889 94.7321 96.0254 94.6662 95.983C94.6003 95.9407 94.7979 95.6442 95.198 95.6348C95.5981 95.6254 95.8052 95.9266 95.744 95.9642Z" fill="#263238"/>
<path d="M90.4773 96.3455C90.5196 96.3972 90.1055 96.7738 89.5595 97.1832C89.2508 97.4649 88.8892 97.6825 88.4958 97.8234C88.4534 97.7716 88.8676 97.395 89.4136 96.9856C89.7215 96.7029 90.0833 96.4852 90.4773 96.3455Z" fill="#263238"/>
<path d="M134.169 96.5526C134.169 96.6184 128.724 96.6749 122.007 96.6749C115.291 96.6749 109.845 96.6184 109.845 96.5526C109.845 96.4867 115.291 96.4302 122.007 96.4302C128.724 96.4302 134.169 96.4867 134.169 96.5526Z" fill="#263238"/>
<path d="M122.916 99.0989C122.916 99.1648 120.026 99.2212 116.458 99.2212C112.89 99.2212 110 99.1648 110 99.0989C110 99.033 112.89 98.9718 116.458 98.9718C120.026 98.9718 122.916 99.0283 122.916 99.0989Z" fill="#263238"/>
<path d="M207.024 115.356C209.155 116.567 211.024 118.19 212.523 120.129C214.023 122.068 215.123 124.285 215.759 126.652C218.033 134.785 224.985 155.965 224.985 155.965C224.985 155.965 228.957 160.639 229.381 164.098C229.804 167.557 228.957 175.93 227.677 177.493C227.306 177.946 226.83 178.302 226.29 178.53C225.75 178.757 225.163 178.849 224.58 178.797L207.857 177.211L201.268 133.119L207.024 115.356Z" fill="#5667FD"/>
<path d="M151.73 114.589C151.73 114.589 139.77 118.354 136.791 121.601L146.581 167.143L146.407 181.517H203.113C203.113 180.807 203.621 133.801 203.621 133.801L207.024 115.356L186.884 111.812L182.912 108.686L160.494 109.825L157.086 113.228L151.73 114.589Z" fill="#5667FD"/>
<g opacity="0.3">
<path opacity="0.3" d="M156.291 154.101C156.117 153.715 155.862 153.296 155.448 153.211C154.766 153.07 154.309 153.875 154.079 154.534C152.27 159.697 149.765 164.588 146.633 169.073L146.487 176.067C149.781 173.285 153.048 170.306 155.156 166.536C157.265 162.766 158.051 158.036 156.291 154.101Z" fill="black"/>
</g>
<path d="M136.791 121.601C136.791 121.601 132.852 126.972 131.218 130.478C129.585 133.985 116.025 163.425 115.216 166.47C114.406 169.515 112.297 179.089 118.487 181.31H131.228L144.011 155.456L144.665 125.452L136.791 121.601Z" fill="#5667FD"/>
<path d="M132.033 162.634C132.033 162.634 131.75 162.385 131.162 162.051C130.322 161.6 129.422 161.274 128.488 161.081C127.847 160.94 127.195 160.849 126.54 160.808C125.785 160.751 125.025 160.805 124.285 160.968C122.611 161.398 121.112 162.339 119.998 163.66C118.864 164.967 118.035 166.508 117.569 168.174C117.185 169.535 116.929 170.93 116.806 172.339C116.684 173.544 116.642 174.528 116.599 175.201C116.599 175.521 116.562 175.78 116.552 175.982C116.553 176.075 116.54 176.166 116.515 176.255C116.509 176.164 116.509 176.073 116.515 175.982C116.515 175.775 116.515 175.512 116.515 175.201C116.515 174.518 116.543 173.539 116.642 172.325C116.741 170.893 116.982 169.474 117.362 168.089C117.824 166.386 118.666 164.809 119.823 163.477C120.973 162.119 122.521 161.157 124.248 160.728C125.003 160.571 125.777 160.528 126.545 160.601C127.209 160.65 127.869 160.752 128.517 160.907C129.46 161.117 130.365 161.472 131.199 161.961C131.424 162.1 131.637 162.257 131.835 162.432C131.908 162.492 131.974 162.56 132.033 162.634Z" fill="#263238"/>
<path d="M125.994 157.485C126.133 157.444 126.277 157.422 126.422 157.419C126.815 157.389 127.21 157.389 127.604 157.419C128.189 157.453 128.77 157.54 129.34 157.678C130.743 158.017 132.059 158.646 133.205 159.523C133.671 159.878 134.104 160.275 134.499 160.709C134.766 161.003 135.01 161.318 135.228 161.65C135.317 161.766 135.39 161.892 135.445 162.027C135.407 162.055 135.059 161.556 134.372 160.841C133.966 160.434 133.53 160.058 133.068 159.716C132.499 159.302 131.894 158.94 131.261 158.633C130.623 158.336 129.962 158.094 129.284 157.909C128.728 157.765 128.161 157.665 127.589 157.607C126.61 157.48 125.994 157.532 125.994 157.485Z" fill="#263238"/>
<path d="M137.506 156.068C137.309 156.076 137.112 156.062 136.918 156.026C136.542 155.979 136 155.922 135.323 155.871C131.803 155.608 128.265 156.032 124.907 157.118C124.262 157.325 123.744 157.509 123.391 157.645C123.211 157.725 123.023 157.786 122.831 157.829C122.993 157.716 123.169 157.624 123.353 157.556C123.697 157.391 124.21 157.184 124.85 156.953C128.211 155.763 131.795 155.335 135.341 155.701C136.014 155.772 136.56 155.852 136.932 155.932C137.128 155.959 137.32 156.005 137.506 156.068Z" fill="#263238"/>
<path d="M173.79 130.911C173.738 130.866 173.694 130.814 173.658 130.756L173.31 130.285L172.03 128.516C170.933 126.962 169.399 124.797 167.596 122.256L167.794 122.227C167.107 124.242 166.349 126.463 165.553 128.817L165.502 128.963L165.37 128.878L165.106 128.708C164.081 128.052 163.148 127.26 162.334 126.355C161.581 125.512 160.918 124.594 160.353 123.616C159.412 121.96 158.68 120.194 158.173 118.359C157.833 117.119 157.558 115.862 157.35 114.593C157.274 114.17 157.218 113.826 157.171 113.567C157.157 113.479 157.137 113.393 157.11 113.308C157.11 113.252 157.077 113.224 157.081 113.219C157.086 113.214 157.274 113.69 157.444 114.579C157.613 115.469 157.882 116.749 158.343 118.297C158.864 120.116 159.605 121.864 160.55 123.503C161.114 124.463 161.771 125.365 162.513 126.195C163.313 127.079 164.228 127.851 165.233 128.492L165.492 128.661L165.313 128.727C166.118 126.374 166.881 124.167 167.577 122.138L167.648 121.931L167.775 122.11C169.545 124.675 171.07 126.859 172.138 128.421C172.651 129.184 173.079 129.791 173.366 130.233L173.682 130.704C173.725 130.769 173.761 130.839 173.79 130.911Z" fill="#263238"/>
<g opacity="0.3">
<path opacity="0.3" d="M188.545 152.651C188.038 157.962 189.189 163.3 191.84 167.929C194.476 172.513 198.345 176.604 203.16 178.797C203.315 174.123 203.089 168.616 203.244 163.943L188.545 152.651Z" fill="black"/>
</g>
<path d="M188.014 146.5C188.014 146.5 185.952 147.069 187.496 151.291C189.04 155.513 189.557 155.254 190.588 159.198C191.619 163.142 192.819 166.729 194.617 168.979C196.415 171.228 203.113 175.756 203.113 175.756L209.118 170.108C209.118 170.108 208.13 165.872 208.365 163.02C208.601 160.168 209.203 153.136 209.118 151.917C209.034 150.698 207.744 147.799 207.744 147.799V145.803L204.656 136.305C204.656 136.305 202.938 135.533 202.341 138.277L201.31 135.364C201.31 135.364 199.681 135.105 199.253 138.451C198.825 141.798 199.597 146.429 199.597 146.429L198.735 152.261L197.451 156.21L196.335 156.379C196.335 156.379 194.655 155.908 193.737 152.76C192.819 149.611 190.329 145.813 188.014 146.5Z" fill="#FFBE9D"/>
<path d="M207.123 161.439C207.123 161.439 207.123 161.368 207.094 161.227C207.066 161.086 207.066 160.855 207.052 160.596C207.019 160.022 206.977 159.227 206.925 158.243C206.831 156.195 206.704 153.343 206.553 150.016L206.577 150.086C206.423 149.927 206.229 149.813 206.014 149.756C205.8 149.7 205.575 149.703 205.362 149.766C205.132 149.822 204.915 149.923 204.725 150.064C204.534 150.204 204.373 150.382 204.252 150.585C203.725 151.428 203.696 152.529 203.532 153.588C203.207 155.993 202.896 158.295 202.614 160.37C202.473 161.415 202.322 162.404 202.12 163.321C201.929 164.172 201.679 165.009 201.371 165.825C201.108 166.574 200.872 167.237 200.726 167.863C200.596 168.379 200.531 168.908 200.533 169.44C200.55 169.897 200.629 170.35 200.769 170.786C200.712 170.681 200.665 170.57 200.628 170.457C200.516 170.13 200.452 169.789 200.439 169.445C200.417 168.899 200.469 168.353 200.595 167.821C200.76 167.122 200.965 166.434 201.211 165.759C201.502 164.946 201.738 164.114 201.917 163.27C202.11 162.361 202.256 161.387 202.388 160.333C202.661 158.243 202.967 155.955 203.287 153.546C203.362 153.014 203.419 152.482 203.513 151.955C203.59 151.422 203.769 150.909 204.04 150.444C204.18 150.215 204.364 150.017 204.581 149.86C204.799 149.704 205.045 149.592 205.306 149.531C205.56 149.455 205.83 149.451 206.085 149.521C206.341 149.591 206.571 149.731 206.751 149.926L206.774 149.959V149.997C206.892 153.324 206.991 156.177 207.062 158.229C207.062 159.222 207.104 160.017 207.123 160.582C207.123 160.841 207.123 161.053 207.123 161.213C207.131 161.288 207.131 161.364 207.123 161.439Z" fill="#EB996E"/>
<path d="M203.828 150.613C203.721 150.446 203.636 150.266 203.574 150.077C203.377 149.575 203.209 149.063 203.07 148.542C202.868 147.77 202.725 146.983 202.642 146.189C202.584 145.721 202.574 145.247 202.614 144.777C202.657 144.251 202.836 143.746 203.131 143.309C203.395 142.917 203.783 142.625 204.233 142.48L204.322 142.457L204.369 142.537C205.24 144.071 205.998 145.427 206.525 146.401L207.142 147.554C207.226 147.689 207.292 147.835 207.339 147.987C207.234 147.867 207.142 147.736 207.066 147.596L206.388 146.481C205.824 145.54 205.038 144.189 204.162 142.659L204.299 142.716C203.905 142.847 203.566 143.105 203.334 143.45C203.063 143.854 202.901 144.32 202.863 144.805C202.816 145.265 202.816 145.729 202.863 146.189C202.934 146.981 203.058 147.767 203.235 148.542C203.386 149.201 203.55 149.728 203.659 150.091C203.732 150.259 203.789 150.434 203.828 150.613Z" fill="#EB996E"/>
<path d="M202.388 151.385C202.346 151.205 202.327 151.02 202.331 150.835C202.331 150.43 202.294 149.931 202.27 149.343C202.232 148.081 202.19 146.34 202.167 144.415C202.096 142.769 202.121 141.12 202.242 139.477C202.301 138.979 202.408 138.487 202.562 138.009C202.608 137.829 202.682 137.657 202.783 137.501C202.61 138.156 202.486 138.823 202.411 139.496C202.294 140.743 202.411 142.485 202.411 144.41C202.411 146.335 202.449 148.076 202.444 149.338C202.444 149.931 202.444 150.43 202.444 150.835C202.446 151.02 202.427 151.204 202.388 151.385Z" fill="#EB996E"/>
<path d="M197.309 167.204C197.276 167.176 197.653 166.734 198.114 165.929C198.385 165.459 198.619 164.97 198.815 164.465C199.046 163.844 199.226 163.205 199.352 162.554C199.462 161.901 199.517 161.24 199.517 160.577C199.509 160.036 199.462 159.497 199.375 158.963C199.22 158.045 199.022 157.499 199.065 157.485C199.139 157.6 199.196 157.725 199.234 157.857C199.367 158.205 199.471 158.564 199.545 158.93C199.66 159.47 199.726 160.02 199.743 160.573C199.784 161.934 199.539 163.289 199.022 164.55C198.814 165.061 198.561 165.552 198.265 166.018C198.068 166.334 197.847 166.633 197.601 166.913C197.427 167.11 197.323 167.214 197.309 167.204Z" fill="#EB996E"/>
<path d="M207.852 164.263L213.063 166.07C213.063 166.07 218.042 163.495 221.473 166.07C224.905 168.645 227.884 175.427 226.943 178.171C226.943 178.171 224.589 181.098 222.772 181.527C220.956 181.955 213.966 180.256 211.053 179.644C208.139 179.032 203.113 175.766 203.113 175.766L207.852 164.263Z" fill="#FFBE9D"/>
<path d="M208.492 171.93C208.456 171.776 208.437 171.618 208.436 171.459C208.436 171.106 208.393 170.687 208.365 170.198C208.309 169.134 208.238 167.666 208.215 166.037C208.191 164.409 208.238 162.935 208.332 161.872C208.379 161.34 208.441 160.93 208.492 160.615C208.504 160.453 208.54 160.295 208.601 160.144C208.638 160.144 208.558 160.803 208.506 161.867C208.455 162.931 208.436 164.394 208.459 166.018C208.483 167.642 208.516 169.045 208.535 170.174C208.535 170.706 208.535 171.139 208.535 171.436C208.547 171.602 208.533 171.768 208.492 171.93Z" fill="#EB996E"/>
<path d="M225.676 165.854C225.136 165.293 224.558 164.771 223.944 164.291C222.437 163.163 220.63 162.507 218.751 162.404C216.872 162.301 215.004 162.756 213.383 163.712C212.725 164.122 212.096 164.576 211.5 165.072C211.624 164.899 211.768 164.742 211.928 164.602C212.352 164.208 212.814 163.858 213.307 163.557C214.944 162.537 216.856 162.047 218.781 162.154C220.707 162.261 222.553 162.96 224.067 164.154C224.524 164.506 224.944 164.906 225.319 165.345C225.457 165.5 225.577 165.671 225.676 165.854Z" fill="#263238"/>
<path d="M225.008 161.509C224.335 161.026 223.607 160.624 222.838 160.314C220.95 159.643 218.899 159.582 216.974 160.14C215.915 160.437 214.896 160.86 213.938 161.401C213.158 161.849 212.423 162.369 211.74 162.954C211.156 163.453 210.709 163.896 210.403 164.192C210.253 164.364 210.088 164.521 209.909 164.663C210.032 164.473 210.173 164.296 210.333 164.136C210.739 163.677 211.171 163.242 211.627 162.832C212.303 162.221 213.04 161.68 213.825 161.217C214.792 160.652 215.829 160.214 216.908 159.914C218.88 159.338 220.987 159.425 222.904 160.163C223.477 160.392 224.017 160.696 224.509 161.067C224.683 161.194 224.801 161.316 224.89 161.392C224.98 161.467 225.008 161.505 225.008 161.509Z" fill="#263238"/>
<path d="M225.05 157.744C225.05 157.791 224.109 157.513 222.612 157.311C221.728 157.192 220.836 157.136 219.944 157.142C218.85 157.154 217.76 157.251 216.682 157.433C215.606 157.631 214.547 157.911 213.514 158.271C212.672 158.57 211.853 158.929 211.062 159.344C209.711 160.05 208.949 160.624 208.921 160.582C209.081 160.427 209.256 160.288 209.443 160.168C209.648 160.007 209.864 159.859 210.088 159.725C210.347 159.561 210.639 159.368 210.977 159.189C211.769 158.751 212.591 158.374 213.439 158.059C214.479 157.68 215.55 157.39 216.64 157.193C217.728 157.009 218.83 156.916 219.934 156.916C220.838 156.92 221.739 156.994 222.631 157.137C223.012 157.184 223.351 157.273 223.648 157.334C223.905 157.387 224.16 157.453 224.41 157.532C224.629 157.584 224.844 157.655 225.05 157.744Z" fill="#263238"/>
<path d="M185.124 111.656C185.319 112.094 185.44 112.562 185.481 113.04C185.622 114.39 185.555 115.753 185.284 117.083C185.119 118.038 184.894 118.981 184.611 119.907C184.24 120.985 183.783 122.032 183.246 123.037C182.121 125.202 180.709 127.56 179.071 130.097L178.883 130.393V130.04C178.883 128.374 178.883 126.628 178.883 124.816L179.066 124.906L174.647 128.431L174.684 128.374C173.636 131.81 172.991 135.356 172.764 138.941C172.331 144.669 172.679 150.147 172.948 155.118C173.216 160.088 173.333 164.573 173.489 168.339C173.644 172.104 173.771 175.144 173.884 177.248C173.95 178.293 173.997 179.103 174.03 179.668C174.03 179.936 174.063 180.138 174.072 180.298C174.082 180.458 174.072 180.515 174.072 180.515C174.072 180.515 174.072 180.444 174.039 180.303C174.007 180.162 174.002 179.941 173.974 179.672C173.922 179.122 173.856 178.307 173.785 177.253C173.644 175.154 173.479 172.109 173.315 168.343C173.15 164.578 172.948 160.102 172.722 155.127C172.496 150.152 172.086 144.669 172.519 138.922C172.757 135.316 173.419 131.75 174.491 128.299V128.266H174.52L178.925 124.731L179.109 124.581V124.816C179.109 126.628 179.109 128.374 179.109 130.04L178.916 129.979C182.149 124.967 184.78 120.608 185.185 117.083C185.464 115.766 185.55 114.415 185.439 113.073C185.401 112.72 185.336 112.371 185.246 112.028C185.152 111.774 185.124 111.656 185.124 111.656Z" fill="#263238"/>
<path d="M176.68 172.368H176.529C176.187 172.39 175.866 172.544 175.635 172.798C175.404 173.052 175.281 173.387 175.292 173.73C175.303 174.073 175.447 174.399 175.694 174.637C175.941 174.876 176.271 175.01 176.614 175.01C176.958 175.01 177.287 174.876 177.534 174.637C177.781 174.399 177.925 174.073 177.936 173.73C177.947 173.387 177.824 173.052 177.593 172.798C177.362 172.544 177.042 172.39 176.699 172.368H176.68Z" fill="white"/>
<path d="M176.68 154.228H176.529C176.188 154.25 175.868 154.404 175.638 154.657C175.408 154.911 175.286 155.244 175.297 155.586C175.308 155.928 175.452 156.252 175.697 156.49C175.943 156.728 176.272 156.861 176.614 156.861C176.956 156.861 177.285 156.728 177.531 156.49C177.777 156.252 177.92 155.928 177.931 155.586C177.942 155.244 177.82 154.911 177.59 154.657C177.36 154.404 177.04 154.25 176.699 154.228H176.68Z" fill="white"/>
<path d="M176.529 137.999C176.881 138.023 177.227 137.905 177.492 137.673C177.756 137.441 177.918 137.113 177.941 136.762C177.964 136.41 177.847 136.064 177.615 135.799C177.383 135.534 177.055 135.373 176.703 135.35H176.529C176.177 135.35 175.84 135.489 175.591 135.738C175.342 135.987 175.202 136.325 175.202 136.677C175.202 137.029 175.342 137.367 175.591 137.615C175.84 137.864 176.177 138.004 176.529 138.004V137.999Z" fill="white"/>
<path d="M156.182 90.4009C154.535 88.5701 152.888 86.725 151.669 84.5788C150.45 82.4326 149.748 79.9239 150.144 77.5188C150.379 76.1068 150.982 74.7419 151.085 73.2828C151.217 71.306 150.389 69.2398 151.085 67.39C152.177 64.4907 156.079 64.0436 158.442 62.0433C160.282 60.4854 161.176 57.9579 163.2 56.6494C164.97 55.501 167.243 55.5293 169.319 55.8211C171.394 56.1129 173.503 56.6447 175.593 56.3623C177.08 56.1647 178.483 55.5622 179.937 55.1998C181.391 54.8374 183.025 54.7291 184.319 55.501C185.613 56.2729 186.347 58.0944 185.496 59.3322C187.915 58.2168 190.988 60.1041 191.652 62.6834C192.316 65.2626 190.988 68.0537 188.936 69.7434C186.884 71.4331 184.229 72.2379 181.617 72.7321C174.209 74.1441 166.165 73.3393 159.778 69.3292" fill="#263238"/>
<path d="M182.243 115.313C181.881 112.489 181.584 110.169 181.565 109.877C181.565 109.877 190.941 107.769 190.423 98.2893C190.174 93.705 188.894 84.3105 187.632 75.8244C186.984 71.4252 184.702 67.4319 181.241 64.6405C177.779 61.849 173.393 60.4646 168.956 60.7631L168.015 60.8196C158.202 62.0574 153.763 71.0848 155.269 80.8652L160.569 113.657C160.569 113.657 162.828 120.91 167.662 122.166L173.781 130.883L174.788 127.118L179.335 123.155C180.206 122.13 180.959 121.011 181.58 119.818C182.274 118.425 182.506 116.847 182.243 115.313Z" fill="#FFBE9D"/>
<path d="M181.57 109.745C181.57 109.745 175.616 110.63 168.985 107.058C168.985 107.058 172.364 113.68 181.758 112.198L181.57 109.745Z" fill="#EB996E"/>
<path d="M184.587 83.9763C184.614 84.3291 184.502 84.6782 184.275 84.9497C184.048 85.2212 183.725 85.3937 183.373 85.4307C183.202 85.4558 183.027 85.4463 182.86 85.4027C182.692 85.3592 182.535 85.2825 182.398 85.1772C182.26 85.0719 182.145 84.9401 182.06 84.7896C181.974 84.6391 181.92 84.473 181.9 84.3011C181.868 83.9456 181.979 83.592 182.207 83.3178C182.436 83.0435 182.763 82.8708 183.119 82.8373C183.29 82.8129 183.465 82.8233 183.633 82.8677C183.8 82.9122 183.957 82.9898 184.094 83.0961C184.231 83.2023 184.345 83.3349 184.43 83.4862C184.515 83.6374 184.568 83.8041 184.587 83.9763Z" fill="#263238"/>
<path d="M185.91 80.6158C185.754 80.804 184.677 80.1122 183.222 80.2157C181.768 80.3192 180.765 81.1147 180.577 80.9546C180.497 80.884 180.648 80.5546 181.09 80.1828C181.69 79.7035 182.423 79.4222 183.189 79.3779C183.947 79.3229 184.703 79.5126 185.345 79.9192C185.816 80.2204 185.985 80.531 185.91 80.6158Z" fill="#263238"/>
<path d="M170.834 84.96C170.862 85.3125 170.75 85.6617 170.523 85.9328C170.296 86.2038 169.972 86.375 169.62 86.4097C169.449 86.4355 169.275 86.4266 169.107 86.3836C168.94 86.3406 168.782 86.2644 168.645 86.1595C168.508 86.0545 168.393 85.923 168.307 85.7727C168.221 85.6225 168.167 85.4565 168.147 85.2848C168.12 84.9328 168.232 84.5843 168.457 84.3129C168.683 84.0415 169.005 83.8685 169.356 83.8304C169.528 83.8053 169.703 83.8148 169.871 83.8583C170.038 83.9018 170.196 83.9784 170.333 84.0837C170.471 84.1889 170.586 84.3207 170.672 84.4712C170.758 84.6217 170.813 84.7879 170.834 84.96Z" fill="#263238"/>
<path d="M171.62 81.8442C171.46 82.0325 170.387 81.3406 168.933 81.4441C167.478 81.5477 166.457 82.3431 166.288 82.1737C166.203 82.1031 166.354 81.7736 166.796 81.4018C167.398 80.9232 168.132 80.6422 168.9 80.5969C169.656 80.5426 170.41 80.7323 171.051 81.1382C171.522 81.4488 171.696 81.7595 171.62 81.8442Z" fill="#263238"/>
<path d="M177.621 92.2883C177.621 92.2036 178.506 91.9871 179.975 91.7C180.342 91.6388 180.69 91.54 180.737 91.2858C180.742 90.8988 180.628 90.5196 180.412 90.1986L179.123 87.4405C177.33 83.5151 176.002 80.2722 176.162 80.2016C176.322 80.131 177.904 83.2562 179.702 87.1863L180.944 89.9633C181.208 90.3959 181.311 90.9072 181.236 91.4082C181.19 91.5424 181.115 91.6647 181.016 91.7657C180.916 91.8668 180.795 91.9441 180.662 91.9918C180.46 92.062 180.249 92.1063 180.036 92.1236C178.549 92.3025 177.635 92.3684 177.621 92.2883Z" fill="#263238"/>
<path d="M171.611 76.1115C171.493 76.521 170.029 76.4269 168.316 76.7469C166.603 77.067 165.271 77.6271 165.022 77.2882C164.909 77.1235 165.125 76.7375 165.657 76.3139C166.369 75.7969 167.19 75.4479 168.056 75.293C168.922 75.1382 169.813 75.1814 170.66 75.4196C171.324 75.6314 171.663 75.9233 171.611 76.1115Z" fill="#263238"/>
<path d="M185.091 76.4363C184.86 76.7846 183.834 76.5116 182.624 76.5728C181.415 76.634 180.412 76.9446 180.153 76.6151C180.041 76.4551 180.182 76.1115 180.624 75.7679C181.199 75.3543 181.884 75.1202 182.591 75.0951C183.299 75.07 183.998 75.2549 184.601 75.6267C185.034 75.9374 185.194 76.248 185.091 76.4363Z" fill="#263238"/>
<path d="M156.535 87.8546C156.371 87.7982 149.899 86.3673 150.539 92.8296C151.179 99.2918 158.173 97.1833 158.173 96.9997C158.173 96.8161 156.535 87.8546 156.535 87.8546Z" fill="#FFBE9D"/>
<path d="M155.312 94.877C155.279 94.877 155.208 94.9664 155.025 95.07C154.77 95.2124 154.469 95.2496 154.187 95.1735C153.476 94.99 152.775 93.9639 152.648 92.8202C152.577 92.2679 152.63 91.7069 152.803 91.1776C152.845 90.971 152.937 90.7776 153.069 90.6137C153.202 90.4499 153.372 90.3204 153.566 90.2362C153.692 90.1895 153.831 90.1885 153.958 90.2331C154.085 90.2778 154.193 90.3655 154.262 90.481C154.366 90.6551 154.337 90.7869 154.37 90.7916C154.403 90.7963 154.497 90.6739 154.422 90.4104C154.369 90.2535 154.265 90.1191 154.126 90.0291C154.03 89.9648 153.922 89.9201 153.809 89.8975C153.696 89.8749 153.58 89.8748 153.467 89.8973C153.207 89.977 152.972 90.1217 152.784 90.3178C152.596 90.5139 152.462 90.7548 152.394 91.0175C152.173 91.6043 152.1 92.2363 152.182 92.8578C152.351 94.1569 153.123 95.31 154.097 95.4841C154.276 95.5182 154.461 95.5113 154.637 95.464C154.813 95.4168 154.976 95.3303 155.114 95.2112C155.316 95.0323 155.349 94.8864 155.312 94.877Z" fill="#EB996E"/>
<path d="M187.157 66.9994C186.715 69.5739 181.509 71.932 177.169 71.8049C173.183 71.6872 171.211 69.7104 168.316 68.3031C166.481 67.4136 166.481 67.4136 163.991 67.8325C161.981 68.1572 160.936 70.5341 159.807 72.2285C161.957 76.9352 161.087 82.3761 160.174 87.4593C160.134 88.0325 159.904 88.5761 159.519 89.0031C158.795 89.6432 157.637 89.2619 156.903 88.6077C155.759 87.5581 155.236 86.0049 154.865 84.4988C153.953 81.0732 153.735 77.4998 154.224 73.9888C154.719 70.4607 156.238 67.1551 158.592 64.4813C161.671 61.2367 165.89 59.3147 170.359 59.1204C174.805 58.9611 179.189 60.206 182.888 62.6787C184.601 63.8036 186.183 65.192 187.171 66.9947" fill="#263238"/>
<path d="M178.577 95.5453L175.282 94.0109C175.102 93.9041 174.894 93.8518 174.684 93.8603C174.453 93.9125 174.249 94.0504 174.115 94.2463C173.729 94.7085 173.488 95.2746 173.422 95.8734C173.357 96.4722 173.47 97.0769 173.748 97.6115C174.049 98.1323 174.523 98.5313 175.088 98.7393C175.653 98.9473 176.273 98.9513 176.84 98.7506C178.007 98.2799 178.572 96.9102 178.666 95.6489L178.577 95.5453Z" fill="#EB996E"/>
<path d="M176.944 98.9953C176.944 99.0236 176.788 99.1177 176.473 99.1883C176.001 99.273 175.515 99.2374 175.061 99.0847C174.366 98.8507 173.783 98.3656 173.428 97.7245C173.202 97.3339 173.067 96.8979 173.032 96.4484C172.997 95.9989 173.063 95.5472 173.225 95.1264C173.391 94.6903 173.651 94.2965 173.988 93.9733C174.151 93.8189 174.331 93.6831 174.524 93.5685C174.64 93.4995 174.771 93.4592 174.906 93.4509C175.036 93.4456 175.167 93.4697 175.287 93.5215C175.463 93.6101 175.634 93.7075 175.8 93.8133L176.247 94.091L177.052 94.5899C178.026 95.2112 178.614 95.6253 178.581 95.6818C178.549 95.7383 177.899 95.4371 176.878 94.8911L176.045 94.4204L175.574 94.1616C175.414 94.0816 175.244 93.9733 175.103 93.9168C175.045 93.889 174.981 93.8778 174.917 93.8845C174.853 93.8911 174.792 93.9154 174.741 93.9545C174.584 94.0531 174.439 94.1683 174.308 94.2981C174.028 94.5762 173.81 94.9096 173.668 95.2771C173.531 95.6335 173.473 96.0152 173.497 96.3962C173.522 96.7771 173.628 97.1483 173.809 97.4845C174.102 98.0478 174.583 98.4907 175.169 98.7365C175.574 98.8996 176.008 98.9812 176.445 98.9765C176.755 98.9906 176.929 98.9624 176.944 98.9953Z" fill="#263238"/>
<path d="M175.903 84.1411C175.857 83.5896 175.77 83.0422 175.644 82.5031C175.411 81.6019 174.992 80.7594 174.414 80.0298C173.836 79.3001 173.112 78.6995 172.288 78.2664C171.464 77.8333 170.558 77.5775 169.63 77.5152C168.701 77.4529 167.769 77.5856 166.895 77.9047C166.292 78.121 165.726 78.4273 165.214 78.8131C164.67 79.2033 164.193 79.6803 163.802 80.2251C162.964 81.3593 162.511 82.7327 162.511 84.1434C162.511 85.5541 162.964 86.9276 163.802 88.0617C164.193 88.6065 164.67 89.0836 165.214 89.4737C165.726 89.8596 166.292 90.1659 166.895 90.3821C167.769 90.6983 168.7 90.8287 169.628 90.765C170.556 90.7014 171.46 90.445 172.284 90.0124C173.107 89.5797 173.831 88.9802 174.41 88.2521C174.988 87.5241 175.409 86.6834 175.644 85.7837C175.769 85.2461 175.856 84.7003 175.903 84.1505C175.909 84.1864 175.909 84.2229 175.903 84.2587C175.903 84.3435 175.903 84.4517 175.903 84.5788C175.907 84.7537 175.895 84.9287 175.866 85.1012C175.839 85.3392 175.797 85.5751 175.739 85.8072C175.59 86.448 175.344 87.0622 175.009 87.6287C174.205 89.0027 172.945 90.0517 171.448 90.5934C169.951 91.1351 168.312 91.1353 166.815 90.5939C166.191 90.3709 165.605 90.0534 165.078 89.6526C164.516 89.25 164.023 88.7588 163.619 88.1982C162.75 87.0233 162.28 85.6003 162.28 84.1387C162.28 82.6771 162.75 81.2541 163.619 80.0792C164.02 79.5177 164.512 79.0263 165.073 78.6249C165.601 78.2241 166.186 77.9066 166.81 77.6835C167.963 77.2694 169.207 77.1718 170.411 77.4011C171.364 77.5834 172.267 77.9675 173.059 78.5277C173.851 79.0878 174.515 79.811 175.004 80.6487C175.339 81.2152 175.585 81.8295 175.734 82.4702C175.792 82.7024 175.835 82.9383 175.861 83.1762C175.89 83.3488 175.903 83.5237 175.899 83.6986C175.899 83.8257 175.899 83.934 175.899 84.0187C175.906 84.059 175.908 84.1003 175.903 84.1411Z" fill="#263238"/>
<path d="M192.019 83.5057C191.973 82.9687 191.89 82.4356 191.77 81.9101C191.392 80.4866 190.547 79.2315 189.369 78.3472C188.567 77.737 187.631 77.3257 186.639 77.147C185.501 76.9381 184.328 77.0372 183.241 77.4341C182.656 77.6456 182.106 77.9422 181.608 78.3142C181.084 78.698 180.623 79.1618 180.243 79.6886C179.429 80.795 178.991 82.1324 178.991 83.5057C178.991 84.879 179.429 86.2164 180.243 87.3228C180.622 87.8492 181.083 88.3116 181.608 88.6924C182.105 89.0677 182.655 89.366 183.241 89.5773C184.328 89.972 185.501 90.071 186.639 89.8644C187.631 89.6857 188.567 89.2744 189.369 88.6642C190.547 87.7798 191.392 86.5248 191.77 85.1012C191.89 84.5758 191.973 84.0427 192.019 83.5057C192.03 83.6451 192.03 83.7852 192.019 83.9246C192.021 84.0963 192.008 84.2679 191.981 84.4376C191.956 84.6692 191.915 84.8988 191.859 85.1248C191.559 86.3575 190.912 87.4782 189.994 88.3542C189.077 89.2302 187.927 89.8245 186.682 90.0668C185.507 90.2884 184.295 90.1926 183.17 89.7891C181.927 89.3359 180.843 88.5274 180.055 87.464C179.208 86.318 178.751 84.9306 178.751 83.5057C178.751 82.0807 179.208 80.6933 180.055 79.5474C180.843 78.4839 181.927 77.6754 183.17 77.2223C184.295 76.8188 185.507 76.7229 186.682 76.9446C187.927 77.1869 189.077 77.7812 189.994 78.6572C190.912 79.5331 191.559 80.6539 191.859 81.8866C191.915 82.1126 191.956 82.3422 191.981 82.5738C192.008 82.7434 192.021 82.915 192.019 83.0868C192.03 83.2262 192.03 83.3663 192.019 83.5057Z" fill="#263238"/>
<path d="M178.883 82.0184C178.854 82.0419 178.699 81.9148 178.412 81.7783C178.042 81.6021 177.636 81.5135 177.226 81.5195C176.817 81.5253 176.415 81.6286 176.054 81.8207C175.772 81.9666 175.621 82.1031 175.583 82.0749C175.546 82.0466 175.668 81.8678 175.95 81.6701C176.322 81.4167 176.76 81.2777 177.21 81.2702C177.66 81.2627 178.102 81.387 178.483 81.6277C178.77 81.816 178.883 81.9995 178.883 82.0184Z" fill="#263238"/>
<path d="M162.809 83.1809C161.878 84.0269 160.894 84.8129 159.863 85.5342C158.877 86.3184 157.843 87.04 156.766 87.6946C157.696 86.8455 158.682 86.0593 159.717 85.3413C160.7 84.5554 161.733 83.8338 162.809 83.1809Z" fill="#263238"/>
<g opacity="0.3">
<path opacity="0.3" d="M157.232 113.812C156.578 120.199 159.006 126.943 164.132 130.812C164.532 131.118 165.036 131.42 165.511 131.245C165.828 131.092 166.081 130.832 166.226 130.511C167.662 128.031 168.2 125.133 167.751 122.303C166.942 124.44 166.245 126.539 165.426 128.77C160.969 126.059 158.173 120.298 157.232 113.812Z" fill="black"/>
</g>
<path opacity="0.3" d="M174.585 128.337L178.351 126.962L178.972 133.321C178.972 133.321 183.029 125.927 184.71 122.557C186.39 119.187 185.524 113.228 185.524 113.228C185.524 113.228 186.122 118.406 182.06 125.028L178.991 130.017V124.793L174.585 128.337Z" fill="black"/>
<g opacity="0.3">
<path opacity="0.3" d="M130.875 160.653C129.158 159.924 127.272 159.687 125.429 159.97C123.465 160.131 121.585 160.842 120.007 162.022C118.482 163.251 117.451 165.19 117.654 167.138L117.842 167.162C119.155 163.613 121.763 161.043 125.128 160.719C128.493 160.394 131.774 161.9 134.071 164.371C133.821 162.526 132.531 161.439 130.875 160.653Z" fill="black"/>
</g>
<g opacity="0.3">
<path opacity="0.3" d="M225.921 164.263C224.617 162.924 222.912 162.046 221.064 161.763C219.454 161.494 217.805 161.59 216.238 162.044C214.67 162.497 213.225 163.298 212.008 164.385L212.724 163.801C214.544 162.705 216.633 162.138 218.758 162.164C220.89 162.2 222.934 163.017 224.504 164.46C225.916 165.797 226.759 167.609 227.564 169.374C227.694 168.453 227.614 167.515 227.329 166.63C227.045 165.744 226.563 164.935 225.921 164.263Z" fill="black"/>
</g>
<path d="M201.687 134.752C201.725 134.575 201.782 134.403 201.856 134.239C202.002 133.867 202.181 133.41 202.388 132.869C202.858 131.716 203.47 130.125 204.129 128.351C204.788 126.576 205.358 124.962 205.767 123.795L206.238 122.406C206.288 122.233 206.358 122.066 206.445 121.907C206.43 122.088 206.391 122.265 206.327 122.435C206.238 122.773 206.097 123.253 205.913 123.847C205.546 125.033 205 126.671 204.341 128.436C203.682 130.201 203.028 131.801 202.529 132.935C202.284 133.505 202.058 133.961 201.922 134.276C201.863 134.444 201.784 134.604 201.687 134.752Z" fill="#263238"/>
<path d="M142.35 135.213C142.284 135.213 141.771 132.987 141.206 130.21C140.641 127.433 140.236 125.197 140.288 125.16C140.34 125.122 140.862 127.386 141.427 130.163C141.992 132.94 142.415 135.199 142.35 135.213Z" fill="#263238"/>
<path d="M141.46 163.213C141.611 163.288 139.737 148.547 139.737 148.547C139.737 148.547 140.919 137.359 141.582 136.842V132.893C141.582 132.893 143.413 131.787 143.903 133.575C143.903 133.575 145.527 132.163 145.785 135.519C146.044 138.875 146.129 142.301 146.129 142.301L149.739 151.329L150.332 151.63C150.332 151.63 151.109 144.57 151.56 143.516C152.012 142.461 152.323 139.943 154.031 140.325C155.74 140.706 155.886 142.118 155.58 144.424C155.274 146.73 154.888 149.131 155.034 150.609C155.18 152.087 155.853 155.376 155.646 157.984C155.439 160.591 154.008 163.34 152.511 165.27C151.014 167.2 148.148 171.196 146.595 172.396C146.091 172.819 141.46 163.213 141.46 163.213Z" fill="#FFBE9D"/>
<path d="M143.286 151.216C143.263 151.006 143.263 150.795 143.286 150.585C143.314 150.114 143.357 149.559 143.404 148.872C143.512 147.427 143.681 145.431 143.874 143.224C143.978 142.127 144.077 141.082 144.166 140.122C144.22 139.68 144.22 139.233 144.166 138.79C144.116 138.411 143.952 138.057 143.696 137.774C143.507 137.571 143.28 137.409 143.026 137.298C142.773 137.187 142.499 137.129 142.222 137.129C142.015 137.138 141.809 137.164 141.606 137.204C141.652 137.172 141.703 137.146 141.756 137.129C141.907 137.072 142.066 137.039 142.227 137.03C142.524 137.013 142.821 137.06 143.098 137.168C143.375 137.276 143.625 137.442 143.832 137.656C144.117 137.961 144.299 138.348 144.355 138.762C144.414 139.22 144.414 139.683 144.355 140.141C144.27 141.082 144.176 142.151 144.082 143.247C143.879 145.45 143.681 147.441 143.526 148.895L143.333 150.604C143.335 150.809 143.319 151.014 143.286 151.216Z" fill="#EB996E"/>
<path d="M145.225 145.187C144.962 145.545 144.747 145.935 144.585 146.349C144.298 147.391 144.098 148.456 143.987 149.531C143.79 150.792 143.601 151.931 143.451 152.755C143.396 153.204 143.298 153.647 143.159 154.077C143.161 153.624 143.202 153.173 143.281 152.727C143.385 151.898 143.55 150.755 143.752 149.493C143.954 148.232 144.086 147.079 144.435 146.288C144.558 145.978 144.732 145.69 144.948 145.436C145.103 145.248 145.216 145.177 145.225 145.187Z" fill="#EB996E"/>
<path d="M143.898 133.382C143.964 133.532 144.006 133.691 144.025 133.853C144.091 134.154 144.171 134.592 144.26 135.138C144.439 136.225 144.637 137.736 144.764 139.416C144.891 141.096 144.915 142.621 144.896 143.723C144.896 144.273 144.872 144.721 144.849 145.027C144.853 145.185 144.834 145.344 144.792 145.497C144.735 144.906 144.712 144.312 144.722 143.718C144.698 142.617 144.642 141.101 144.519 139.43C144.397 137.759 144.228 136.249 144.091 135.157C143.992 134.57 143.927 133.977 143.898 133.382Z" fill="#EB996E"/>
<path d="M154.314 147.201C154.135 147.316 153.931 147.386 153.72 147.404C153.508 147.422 153.295 147.388 153.1 147.305C152.408 147.097 152.088 146.566 152.158 146.542C152.482 146.748 152.824 146.924 153.18 147.069C153.553 147.144 153.933 147.189 154.314 147.201Z" fill="#EB996E"/>
<path d="M141.662 161.377L132.127 165.388H126.441C126.441 165.388 120.821 167.143 119.955 172.415C119.089 177.686 118.967 180.392 121.438 181.047C123.909 181.701 130.889 181.771 134.348 180.623C137.808 179.475 146.873 172.151 146.873 172.151L147.743 166.861L141.662 161.377Z" fill="#FFBE9D"/>
<path d="M143.898 167.204C143.898 167.204 143.79 167.124 143.625 166.955C143.398 166.709 143.192 166.444 143.008 166.164C142.411 165.233 141.962 164.216 141.676 163.147C141.381 162.088 141.184 161.004 141.088 159.909C141.025 159.457 141.012 158.999 141.051 158.544C141.152 158.985 141.222 159.434 141.258 159.885C141.403 160.964 141.621 162.032 141.912 163.081C142.196 164.128 142.614 165.134 143.154 166.075C143.583 166.785 143.931 167.171 143.898 167.204Z" fill="#EB996E"/>
<path d="M148.054 168.875C148.306 168.215 148.488 167.531 148.595 166.832C148.809 165.13 148.349 163.411 147.315 162.041C146.736 161.232 146.082 160.526 145.531 159.838C145.03 159.239 144.597 158.586 144.242 157.89C144.008 157.415 143.849 156.907 143.771 156.384C143.742 156.193 143.742 156 143.771 155.809C143.881 156.506 144.1 157.181 144.42 157.81C144.791 158.482 145.231 159.113 145.734 159.692C146.284 160.361 146.943 161.067 147.536 161.895C148.113 162.672 148.519 163.562 148.727 164.507C148.887 165.282 148.908 166.079 148.788 166.861C148.709 167.382 148.564 167.892 148.355 168.376C148.28 168.546 148.209 168.673 148.162 168.758C148.115 168.842 148.059 168.88 148.054 168.875Z" fill="#EB996E"/>
<path d="M133.346 145.907C132.5 144.535 131.724 143.121 131.021 141.671C129.797 139.317 128.855 137.359 128.912 137.326C129.758 138.698 130.534 140.112 131.237 141.562C132.014 142.974 132.717 144.424 133.346 145.907Z" fill="white"/>
<path d="M148.76 128.732C149.161 127.525 149.641 126.346 150.196 125.202C150.677 124.026 151.232 122.882 151.857 121.776C151.453 122.981 150.974 124.16 150.421 125.306C149.941 126.482 149.386 127.626 148.76 128.732Z" fill="white"/>
<path d="M163.883 139.877C163.102 139.126 162.378 138.317 161.717 137.458C160.998 136.65 160.338 135.789 159.745 134.884C160.527 135.633 161.249 136.442 161.906 137.303C162.628 138.111 163.289 138.971 163.883 139.877Z" fill="white"/>
<path d="M160.404 155.207C160.882 154.347 161.426 153.525 162.033 152.75C162.579 151.931 163.191 151.158 163.864 150.439C163.387 151.3 162.843 152.122 162.235 152.896C161.692 153.717 161.08 154.491 160.404 155.207Z" fill="white"/>
<path d="M155.726 176.862C155.506 176.571 155.321 176.255 155.175 175.921C154.865 175.319 154.464 174.476 154.06 173.53C153.655 172.584 153.33 171.704 153.118 171.069C152.978 170.73 152.877 170.376 152.817 170.014C153.011 170.326 153.169 170.66 153.288 171.007L154.3 173.431C154.69 174.33 155.039 175.144 155.345 175.846C155.509 176.169 155.637 176.51 155.726 176.862Z" fill="white"/>
<path d="M168.999 167.656C168.036 167.592 167.081 167.449 166.142 167.228C165.183 167.086 164.238 166.862 163.318 166.56C165.228 166.765 167.117 167.132 168.966 167.656H168.999Z" fill="white"/>
<path d="M179.353 147.422C180.197 146.33 181.105 145.289 182.074 144.306C182.985 143.265 183.956 142.278 184.983 141.351C184.136 142.443 183.226 143.485 182.257 144.471C181.347 145.51 180.377 146.495 179.353 147.422Z" fill="white"/>
<path d="M189.708 174.406C189.656 174.453 188.136 172.688 186.31 170.475C184.484 168.263 183.048 166.428 183.1 166.385C183.152 166.343 184.672 168.103 186.498 170.315C188.324 172.528 189.75 174.363 189.708 174.406Z" fill="white"/>
<path d="M125.321 162.907C125.354 162.973 123.965 163.679 122.45 164.842C120.934 166.004 119.88 167.153 119.823 167.101C119.995 166.803 120.21 166.533 120.464 166.301C121.027 165.699 121.641 165.146 122.299 164.649C122.954 164.149 123.65 163.705 124.38 163.321C124.672 163.138 124.989 162.999 125.321 162.907Z" fill="white"/>
<path d="M129.199 152.496C128.9 153.162 128.529 153.793 128.093 154.379C127.722 155.009 127.281 155.596 126.78 156.13C127.08 155.464 127.451 154.833 127.886 154.247C128.257 153.616 128.697 153.028 129.199 152.496Z" fill="white"/>
<path d="M137.935 162.719C137.181 161.521 136.859 160.101 137.022 158.695C137.092 158.695 137.116 159.636 137.375 160.733C137.634 161.829 138.001 162.686 137.935 162.719Z" fill="white"/>
<path d="M139.229 130.281C138.644 130.485 138.035 130.613 137.417 130.662C136.809 130.789 136.187 130.835 135.567 130.798C136.154 130.594 136.765 130.466 137.384 130.417C137.991 130.292 138.611 130.246 139.229 130.281Z" fill="white"/>
<path d="M145.79 118.641C144.776 119.391 143.669 120.005 142.495 120.467C142.977 120.059 143.51 119.715 144.082 119.446C144.615 119.106 145.189 118.836 145.79 118.641Z" fill="white"/>
<path d="M164.245 123.559C163.58 122.883 162.972 122.153 162.428 121.376C161.824 120.646 161.283 119.866 160.809 119.046C162.083 120.448 163.232 121.958 164.245 123.559Z" fill="white"/>
<path d="M187.67 135.26C186.373 133.982 185.397 132.414 184.823 130.685C184.893 130.657 185.397 131.754 186.187 133.01C186.978 134.267 187.727 135.213 187.67 135.26Z" fill="white"/>
<path d="M196.613 138.207C196.045 139.861 195.32 141.458 194.448 142.974C194.699 142.136 195.025 141.321 195.422 140.541C195.744 139.727 196.143 138.945 196.613 138.207Z" fill="white"/>
<path d="M197.865 126.002C197.009 125.171 196.213 124.281 195.483 123.338C194.69 122.448 193.959 121.504 193.295 120.514C194.941 122.237 196.468 124.071 197.865 126.002Z" fill="white"/>
<path d="M184.206 116.09C184.057 115.34 183.986 114.577 183.994 113.812C183.923 113.049 183.934 112.28 184.027 111.52C184.176 112.27 184.247 113.033 184.239 113.798C184.313 114.561 184.302 115.329 184.206 116.09Z" fill="white"/>
<path d="M195.356 115.473C194.402 115.723 193.429 115.895 192.447 115.986C191.477 116.157 190.495 116.247 189.51 116.255C190.464 116.005 191.437 115.833 192.419 115.742C193.389 115.571 194.371 115.481 195.356 115.473Z" fill="white"/>
<path d="M212.879 128.355C212.225 127.283 211.641 126.17 211.128 125.023C210.546 123.91 210.037 122.761 209.603 121.583C210.259 122.654 210.846 123.768 211.359 124.915C211.939 126.028 212.447 127.177 212.879 128.355Z" fill="white"/>
<path d="M209.947 139.487C210.144 137.689 210.5 135.912 211.01 134.178C210.954 135.081 210.817 135.977 210.601 136.856C210.464 137.751 210.245 138.632 209.947 139.487Z" fill="white"/>
<path d="M218.061 148.26C217.512 147.087 217.04 145.88 216.649 144.645C216.182 143.438 215.794 142.203 215.486 140.946C216.032 142.122 216.504 143.331 216.898 144.565C217.363 145.771 217.751 147.005 218.061 148.26Z" fill="white"/>
<path d="M216.927 153.395C216.086 153.268 215.279 152.979 214.55 152.543C213.784 152.175 213.1 151.657 212.54 151.018C212.587 150.962 213.453 151.677 214.667 152.327C215.882 152.976 216.95 153.324 216.927 153.395Z" fill="white"/>
<path d="M227.361 165.096C226.728 164.068 226.235 162.96 225.898 161.801C226.531 162.829 227.024 163.937 227.361 165.096Z" fill="white"/>
<path d="M165.803 181.418C165.602 180.74 165.479 180.04 165.436 179.333C165.316 178.636 165.275 177.927 165.313 177.22C165.528 177.903 165.659 178.609 165.704 179.324C165.817 180.016 165.85 180.719 165.803 181.418Z" fill="white"/>
<path d="M197.775 180.609C197.797 179.92 197.9 179.236 198.081 178.571C198.187 177.89 198.372 177.223 198.632 176.585C198.61 177.274 198.506 177.958 198.321 178.623C198.218 179.304 198.035 179.971 197.775 180.609Z" fill="white"/>
<path d="M203.903 87.2804L208.064 80.0133C205.498 75.8714 204.574 70.9194 205.475 66.131C206.375 61.3426 209.034 57.0642 212.929 54.137C216.824 51.2098 221.673 49.8456 226.523 50.3126C231.373 50.7797 235.873 53.0441 239.137 56.6607C242.402 60.2774 244.196 64.9846 244.166 69.8568C244.136 74.729 242.284 79.4137 238.975 82.9899C235.666 86.5661 231.139 88.7749 226.284 89.1822C221.428 89.5894 216.596 88.1656 212.738 85.1907L203.903 87.2804Z" fill="#FAFAFA"/>
<path d="M203.903 87.2804L212.738 85.266H212.827L212.771 85.1907L212.686 85.2707C213.924 86.2305 215.27 87.0424 216.696 87.6899C218.396 88.4508 220.197 88.9644 222.043 89.2149C223.065 89.3576 224.099 89.4096 225.13 89.3702C225.662 89.3419 226.199 89.3278 226.745 89.2855L228.392 89.036C233.301 88.0734 237.659 85.2761 240.578 81.2135C242.199 78.9663 243.322 76.3989 243.872 73.6829C244.432 70.8095 244.354 67.8481 243.642 65.0085C242.902 62.048 241.469 59.3056 239.462 57.0071L238.657 56.0893C238.394 55.7928 238.083 55.5528 237.801 55.2798C237.518 55.0068 237.236 54.7338 236.916 54.5079L235.975 53.8113C235.668 53.5743 235.344 53.3603 235.005 53.1712L234.017 52.5688L232.981 52.0651C232.642 51.8881 232.293 51.7309 231.936 51.5945C229.16 50.5003 226.173 50.0419 223.196 50.2531C220.389 50.4419 217.657 51.2453 215.195 52.6064C210.755 55.0757 207.436 59.1596 205.927 64.0107C205.323 66.0683 205.037 68.2064 205.08 70.3505C205.128 72.211 205.445 74.0547 206.021 75.8244C206.507 77.2951 207.162 78.7041 207.975 80.0227V79.9616C205.367 84.6353 204.092 86.918 203.889 87.2757C204.096 86.9227 205.405 84.6541 208.073 80.018V79.9898V79.9616C207.281 78.6458 206.646 77.2414 206.181 75.7773C205.608 74.0198 205.291 72.189 205.24 70.3411C205.209 68.2168 205.499 66.0999 206.101 64.0624C207.612 59.277 210.898 55.2517 215.284 52.8135C217.722 51.4553 220.43 50.6517 223.215 50.4602C226.156 50.2529 229.105 50.7081 231.847 51.7922C232.199 51.9285 232.544 52.0857 232.878 52.2628L233.904 52.7617L234.892 53.3736C235.22 53.5618 235.535 53.7725 235.833 54.0043L236.775 54.6962C237.09 54.9221 237.354 55.2045 237.645 55.4586C237.937 55.7128 238.234 55.967 238.493 56.2588L239.279 57.1201C241.263 59.3966 242.679 62.1113 243.411 65.0414C244.118 67.8449 244.197 70.7701 243.642 73.6076C243.104 76.2946 241.996 78.8352 240.394 81.0582C237.512 85.0804 233.208 87.8553 228.354 88.8195L226.726 89.0737C226.185 89.116 225.653 89.1348 225.126 89.1631C224.104 89.2048 223.08 89.1575 222.066 89.0219C220.232 88.7846 218.441 88.287 216.748 87.544C215.327 86.9089 213.986 86.1096 212.752 85.1624L212.389 84.8847L212.667 85.2471L212.7 85.153L203.903 87.2804Z" fill="#263238"/>
<path d="M229.903 68.9762C229.908 69.3465 230.021 69.7072 230.23 70.0132C230.439 70.3191 230.733 70.5568 231.076 70.6963C231.419 70.8359 231.796 70.8712 232.159 70.7978C232.522 70.7244 232.855 70.5456 233.117 70.2837C233.379 70.0219 233.557 69.6886 233.631 69.3256C233.704 68.9626 233.669 68.586 233.529 68.243C233.39 67.8999 233.152 67.6057 232.846 67.397C232.54 67.1884 232.179 67.0746 231.809 67.07C231.558 67.0668 231.309 67.114 231.076 67.2086C230.843 67.3033 230.632 67.4436 230.454 67.6212C230.277 67.7989 230.136 68.0103 230.042 68.243C229.947 68.4757 229.9 68.725 229.903 68.9762Z" fill="#263238"/>
<path d="M222.283 68.9762C222.288 69.3475 222.402 69.7092 222.612 70.0157C222.821 70.3222 223.117 70.5598 223.461 70.6987C223.806 70.8376 224.183 70.8715 224.547 70.7962C224.911 70.721 225.244 70.5398 225.505 70.2756C225.766 70.0114 225.943 69.6759 226.014 69.3114C226.084 68.9469 226.046 68.5695 225.903 68.2269C225.759 67.8842 225.518 67.5916 225.209 67.3857C224.9 67.1799 224.537 67.07 224.166 67.07C223.916 67.07 223.67 67.1195 223.44 67.2155C223.21 67.3116 223.001 67.4524 222.826 67.6297C222.651 67.807 222.513 68.0174 222.419 68.2485C222.326 68.4796 222.28 68.727 222.283 68.9762Z" fill="#263238"/>
<path d="M214.682 68.0254C214.5 68.3484 214.417 68.7179 214.444 69.0876C214.471 69.4573 214.607 69.8107 214.834 70.1036C215.062 70.3965 215.37 70.6158 215.722 70.734C216.073 70.8522 216.451 70.8641 216.809 70.7681C217.167 70.6721 217.489 70.4725 217.734 70.1944C217.979 69.9163 218.137 69.572 218.187 69.2047C218.237 68.8374 218.178 68.4635 218.017 68.1298C217.855 67.7961 217.599 67.5174 217.28 67.3288C217.064 67.2014 216.825 67.1183 216.577 67.0843C216.329 67.0504 216.076 67.0663 215.834 67.1312C215.592 67.1961 215.366 67.3086 215.168 67.4621C214.97 67.6157 214.805 67.8072 214.682 68.0254Z" fill="#263238"/>
</svg>
